<?xml version="1.0" encoding="UTF-8" standalone="no"?>
<!-- Created with Inkscape (http://www.inkscape.org/) -->

<svg
   xmlns:dc="http://purl.org/dc/elements/1.1/"
   xmlns:cc="http://creativecommons.org/ns#"
   xmlns:rdf="http://www.w3.org/1999/02/22-rdf-syntax-ns#"
   xmlns:svg="http://www.w3.org/2000/svg"
   xmlns="http://www.w3.org/2000/svg"
   xmlns:sodipodi="http://sodipodi.sourceforge.net/DTD/sodipodi-0.dtd"
   xmlns:inkscape="http://www.inkscape.org/namespaces/inkscape"
   width="512"
   height="512"
   viewBox="0 0 512.00001 512.00001"
   id="svg6242"
   version="1.1"
   inkscape:version="0.91 r13725"
   sodipodi:docname="favicon.svg"
   inkscape:export-filename="/home/chrism/dev/dopeloop-ui/public/style/img/icon.png"
   inkscape:export-xdpi="90"
   inkscape:export-ydpi="90">
  <defs
     id="defs6244" />
  <sodipodi:namedview
     id="base"
     pagecolor="#424242"
     bordercolor="#666666"
     borderopacity="1.0"
     inkscape:pageopacity="0"
     inkscape:pageshadow="2"
     inkscape:zoom="0.1767767"
     inkscape:cx="-1647.3317"
     inkscape:cy="-415.08233"
     inkscape:document-units="px"
     inkscape:current-layer="layer1"
     showgrid="false"
     borderlayer="true"
     inkscape:showpageshadow="false"
     units="px"
     inkscape:window-width="1920"
     inkscape:window-height="1080"
     inkscape:window-x="0"
     inkscape:window-y="0"
     inkscape:window-maximized="1" />
  <metadata
     id="metadata6247">
    <rdf:RDF>
      <cc:Work
         rdf:about="">
        <dc:format>image/svg+xml</dc:format>
        <dc:type
           rdf:resource="http://purl.org/dc/dcmitype/StillImage" />
        <dc:title />
      </cc:Work>
    </rdf:RDF>
  </metadata>
  <g
     inkscape:label="Layer 1"
     inkscape:groupmode="layer"
     id="layer1"
     transform="translate(0,-540.36216)">
    <g
       id="g4992"
       style="stroke-width:100;stroke-miterlimit:4;stroke-dasharray:none"
       transform="matrix(0.62427553,0.61949465,-0.62427553,0.61949465,400.59364,1143.2478)">
      <path
         d="m -1349.0833,988.55269 q 0,1.13095 -0.2262,1.58333 -14.4762,60.61908 -60.6191,98.27978 -46.1428,37.6607 -108.119,37.6607 -33.0238,0 -63.8988,-12.4405 -30.875,-12.4404 -55.0774,-35.5119 l -29.1786,29.1786 q -4.2976,4.2976 -10.1785,4.2976 -5.881,0 -10.1786,-4.2976 -4.2976,-4.2976 -4.2976,-10.1786 l 0,-101.33331 q 0,-5.88096 4.2976,-10.17858 4.2976,-4.29762 10.1786,-4.29762 l 101.3333,0 q 5.8809,0 10.1786,4.29762 4.2976,4.29762 4.2976,10.17858 0,5.88091 -4.2976,10.17861 l -30.9881,30.9881 q 16.0595,14.9285 36.4166,23.0714 20.3572,8.1429 42.2977,8.1429 30.3095,0 56.5476,-14.7024 26.2381,-14.7024 42.0714,-40.4881 2.4881,-3.8453 11.9881,-26.46432 1.8095,-5.20239 6.7857,-5.20239 l 43.4286,0 q 2.9405,0 5.0893,2.14881 2.1488,2.14881 2.1488,5.08929 z m 5.6547,-180.9524 0,101.33334 q 0,5.88096 -4.2976,10.17858 -4.2976,4.29762 -10.1785,4.29762 l -101.3334,0 q -5.8809,0 -10.1786,-4.29762 -4.2976,-4.29762 -4.2976,-10.17858 0,-5.88095 4.2976,-10.17857 l 31.2143,-31.21429 q -33.4762,-30.98809 -78.9404,-30.98809 -30.3096,0 -56.5477,14.70238 -26.2381,14.70238 -42.0714,40.4881 -2.4881,3.84523 -11.9881,26.46429 -1.8095,5.20238 -6.7857,5.20238 l -45.0119,0 q -2.9405,0 -5.0893,-2.14881 -2.1488,-2.14881 -2.1488,-5.08929 l 0,-1.58333 q 14.7024,-60.61906 61.0714,-98.27977 46.3691,-37.66072 108.5715,-37.66072 33.0238,0 64.238,12.55357 31.2143,12.55358 55.4167,35.39881 l 29.4048,-29.17857 q 4.2976,-4.29762 10.1786,-4.29762 5.8809,0 10.1785,4.29762 4.2976,4.29762 4.2976,10.17857 z"
         id="path4271"
         style="fill:#de5454;fill-opacity:1;stroke:#ffffff;stroke-width:113.7046051;stroke-miterlimit:4;stroke-dasharray:none;stroke-opacity:1"
         inkscape:connector-curvature="0" />
      <path
         style="fill:#c83737;fill-opacity:1;stroke-width:100;stroke-miterlimit:4;stroke-dasharray:none"
         id="path4263"
         d="m -1349.0833,988.55268 q 0,1.13096 -0.2262,1.58334 -14.4762,60.61908 -60.619,98.27978 -46.1429,37.6607 -108.1191,37.6607 -33.0238,0 -63.8988,-12.4405 -30.875,-12.4404 -55.0774,-35.5119 l -29.1785,29.1786 q -4.2977,4.2976 -10.1786,4.2976 -5.881,0 -10.1786,-4.2976 -4.2976,-4.2976 -4.2976,-10.1786 l 0,-101.33332 q 0,-5.88095 4.2976,-10.17857 4.2976,-4.29762 10.1786,-4.29762 l 101.3333,0 q 5.881,0 10.1786,4.29762 4.2976,4.29762 4.2976,10.17857 0,5.88092 -4.2976,10.17862 l -30.9881,30.988 q 16.0595,14.9286 36.4167,23.0715 20.3571,8.1428 42.2976,8.1428 30.3095,0 56.5476,-14.7023 26.2381,-14.7024 42.0714,-40.4881 2.4881,-3.8453 11.9881,-26.46433 1.8096,-5.20238 6.7858,-5.20238 l 43.4285,0 q 2.9405,0 5.0893,2.14881 2.1488,2.14881 2.1488,5.08928 z m 5.6548,-180.95239 0,101.33334 q 0,5.88096 -4.2976,10.17858 -4.2977,4.29762 -10.1786,4.29762 l -101.3333,0 q -5.881,0 -10.1786,-4.29762 -4.2976,-4.29762 -4.2976,-10.17858 0,-5.88095 4.2976,-10.17857 l 31.2143,-31.21429 q -33.4762,-30.9881 -78.9405,-30.9881 -30.3095,0 -56.5476,14.70239 -26.2381,14.70238 -42.0715,40.48809 -2.4881,3.84524 -11.9881,26.46429 -1.8095,5.20239 -6.7857,5.20239 l -45.0119,0 q -2.9405,0 -5.0893,-2.14881 -2.1488,-2.14881 -2.1488,-5.08929 l 0,-1.58333 q 14.7024,-60.61906 61.0715,-98.27977 46.369,-37.66072 108.5714,-37.66072 33.0238,0 64.2381,12.55357 31.2143,12.55357 55.4167,35.39881 l 29.4047,-29.17857 q 4.2976,-4.29762 10.1786,-4.29762 5.8809,0 10.1786,4.29762 4.2976,4.29762 4.2976,10.17857 z"
         inkscape:connector-curvature="0" />
    </g>
    <g
       style="fill:#c83737;fill-opacity:1;stroke:#ffffff;stroke-width:39.89979935;stroke-linecap:round;stroke-linejoin:round;stroke-miterlimit:4;stroke-dasharray:none;stroke-opacity:1"
       transform="matrix(0.80336249,-0.75945337,0.73661903,0.82826581,-113.82927,742.85354)"
       id="g4312">
      <path
         inkscape:connector-curvature="0"
         id="path4314"
         d="m 351.874,332.49108 c -5.97631,-1.52945 -10.70559,-3.84818 -21.5066,-10.54455 -4.35507,-2.70004 -7.29202,-4.09679 -6.52655,-3.10389 0.76546,0.99289 2.99065,3.83026 4.94486,6.30526 7.35493,9.31499 7.4141,8.41379 -0.5,7.61538 -9.90659,-0.99943 -22.13229,-4.20984 -27.08526,-7.11248 -4.17482,-2.44661 -9.56054,-8.87115 -12.85043,-15.3291 -2.034,-3.99267 -2.33832,-3.43193 9.5766,-17.6456 12.6017,-15.03292 25.53992,-28.19936 32.80606,-33.38471 l 6.50685,-4.64349 79.77309,-0.26753 c 43.8752,-0.14715 79.77193,0.0779 79.77052,0.5 -0.003,0.93447 -14.4135,13.36671 -21.99743,18.97782 -3.025,2.2381 -7.84754,5.24387 -10.71676,6.67949 l -5.21675,2.61022 -29.19991,0 c -16.05995,0 -28.96586,0.23405 -28.6798,0.52012 0.28607,0.28606 12.31479,1.58978 26.7305,2.89716 14.41571,1.30737 26.43419,2.60086 26.70774,2.87441 0.79585,0.79585 -15.45236,14.5466 -23.28785,19.70835 -3.93955,2.59525 -9.22134,5.23697 -11.73731,5.8705 -5.98173,1.50621 -17.94916,0.16471 -39.04683,-4.37701 -8.77084,-1.8881 -16.05358,-3.32631 -16.18388,-3.19601 -0.1303,0.13029 8.05834,3.328 18.19697,7.10601 10.13864,3.778 18.43388,7.16207 18.43388,7.52014 0,0.73642 -16.34058,6.16628 -25.64019,8.52006 -10.88463,2.75496 -17.74168,3.31464 -23.27152,1.89945 z"
         style="fill:#c83737;fill-opacity:1;stroke:#ffffff;stroke-width:39.89979935;stroke-linecap:round;stroke-linejoin:round;stroke-miterlimit:4;stroke-dasharray:none;stroke-opacity:1" />
      <path
         inkscape:connector-curvature="0"
         id="path4316"
         d="m 327.78571,332.47969 c -9.74713,-1.54333 -19.21605,-3.80065 -23.28767,-5.55161 -5.33774,-2.29543 -10.9227,-8.07605 -14.94779,-15.47147 l -2.66672,-4.89964 9.48671,-11.45453 c 11.93567,-14.41149 29.38113,-32.19144 35.90212,-36.59053 l 4.98665,-3.36401 79.51335,0.0454 79.51335,0.0454 -5.5,5.04413 c -8.34439,7.65275 -21.87929,17.62049 -27.68807,20.3908 -5.17101,2.46615 -5.2892,2.47429 -35.91667,2.47429 -16.90073,0 -30.5031,0.2255 -30.22749,0.5011 0.47272,0.47273 51.67548,5.4989 56.01855,5.4989 2.24197,0 -2.75317,4.89349 -15.09286,14.78571 -10.20049,8.17732 -17.02135,11.21429 -25.18661,11.21429 -7.16884,0 -26.76058,-3.34122 -43.40295,-7.40204 -5.49785,-1.34151 -10.13067,-2.30452 -10.29515,-2.14004 -0.31099,0.31098 12.90913,5.5297 30.51202,12.04478 5.62143,2.08057 9.9921,4.15287 9.7126,4.60511 -0.71847,1.16251 -18.3238,6.70914 -28.43337,8.95805 -15.44979,3.43686 -20.36259,2.35024 -38.42737,-8.49938 -5.80109,-3.4841 -10.24369,-5.82438 -9.87244,-5.20061 0.37124,0.62377 3.06558,4.14761 5.9874,7.83075 2.92183,3.68314 5.31241,6.94564 5.31241,7.25 0,0.58105 -1.82576,0.54611 -6,-0.11483 z"
         style="fill:#c83737;fill-opacity:1;stroke:#ffffff;stroke-width:39.89979935;stroke-linecap:round;stroke-linejoin:round;stroke-miterlimit:4;stroke-dasharray:none;stroke-opacity:1" />
    </g>
    <g
       transform="scale(0.99783141,1.0021733)"
       style="font-style:normal;font-variant:normal;font-weight:normal;font-stretch:normal;font-size:541.86535645px;line-height:125%;font-family:'Hemi Head 426';-inkscape-font-specification:'Hemi Head 426, ';text-align:start;letter-spacing:0px;word-spacing:0px;text-anchor:start;fill:#ffffff;fill-opacity:1;stroke:#ffffff;stroke-width:57.7576561;stroke-linecap:round;stroke-linejoin:round;stroke-miterlimit:4;stroke-dasharray:none;stroke-opacity:1"
       id="text4294">
      <path
         d="m 293.00504,1006.4212 -171.22945,0 q -18.96529,0 -31.970056,-1.6256 -12.462903,-1.6256 -20.590883,-5.41865 -7.586115,-4.33492 -11.379173,-11.37917 -3.251192,-7.04425 -3.251192,-18.42342 0,-12.4629 3.793058,-29.26073 L 80.051958,838.44294 q 4.876788,-21.13275 10.837307,-34.13751 6.502384,-13.00477 16.255965,-20.04902 10.29544,-7.04425 25.46767,-9.21171 15.71409,-2.70933 38.47244,-2.70933 l 81.82167,0 -11.92104,56.354 -56.354,0 q -11.37917,0 -18.96529,1.08373 -7.04425,0.54186 -11.92103,3.79305 -4.33493,3.2512 -7.04425,9.75358 -2.70933,6.50239 -4.87679,17.88156 l -11.92104,56.354 q -2.70933,13.54663 -2.70933,17.88155 0,9.21171 5.96052,11.92104 6.50239,2.70933 25.46767,2.70933 l 80.19608,0 54.18653,-255.76045 66.64944,0 -66.64944,312.11444 z"
         style="stroke:#ffffff;stroke-width:57.7576561;stroke-linecap:round;stroke-linejoin:round;stroke-miterlimit:4;stroke-dasharray:none"
         id="path4160" />
    </g>
    <g
       transform="scale(0.99783141,1.0021733)"
       style="font-style:normal;font-variant:normal;font-weight:normal;font-stretch:normal;font-size:541.86535645px;line-height:125%;font-family:'Hemi Head 426';-inkscape-font-specification:'Hemi Head 426, ';text-align:start;letter-spacing:0px;word-spacing:0px;text-anchor:start;fill:#c83737;fill-opacity:1;stroke:none;stroke-width:8;stroke-linecap:butt;stroke-linejoin:miter;stroke-miterlimit:4;stroke-dasharray:none;stroke-opacity:1"
       id="text4298">
      <path
         d="m 293.00516,1006.4207 -171.22945,0 q -18.96529,0 -31.970059,-1.6256 -12.462904,-1.6256 -20.590884,-5.41863 -7.586115,-4.33493 -11.379172,-11.37918 -3.251192,-7.04425 -3.251192,-18.42342 0,-12.4629 3.793057,-29.26073 L 80.052074,838.44245 q 4.876788,-21.13274 10.837307,-34.13751 6.502385,-13.00477 16.255959,-20.04902 10.29544,-7.04425 25.46767,-9.21171 15.7141,-2.70933 38.47244,-2.70933 l 81.82167,0 -11.92103,56.354 -56.354,0 q -11.37917,0 -18.96529,1.08373 -7.04425,0.54186 -11.92104,3.79306 -4.33492,3.25119 -7.04425,9.75357 -2.70932,6.50239 -4.87679,17.88156 l -11.92103,56.354 q -2.70933,13.54663 -2.70933,17.88155 0,9.21171 5.96052,11.92104 6.50238,2.70933 25.46767,2.70933 l 80.19607,0 54.18654,-255.76045 66.64944,0 -66.64944,312.11443 z"
         style="fill:#c83737;fill-opacity:1;stroke:none;stroke-width:8;stroke-miterlimit:4;stroke-dasharray:none"
         id="path4157" />
    </g>
    <g
       id="g4318"
       transform="matrix(0.80336249,-0.75945337,0.73661903,0.82826581,-113.82927,742.85354)"
       style="fill:#c83737;fill-opacity:1;stroke:none;stroke-width:11.78206921;stroke-linecap:round;stroke-linejoin:round;stroke-miterlimit:4;stroke-dasharray:none;stroke-opacity:1">
      <path
         style="fill:#c83737;fill-opacity:1;stroke:none;stroke-width:11.78206921;stroke-linecap:round;stroke-linejoin:round;stroke-miterlimit:4;stroke-dasharray:none;stroke-opacity:1"
         d="m 351.874,332.49108 c -5.97631,-1.52945 -10.70559,-3.84818 -21.5066,-10.54455 -4.35507,-2.70004 -7.29202,-4.09679 -6.52655,-3.10389 0.76546,0.99289 2.99065,3.83026 4.94486,6.30526 7.35493,9.31499 7.4141,8.41379 -0.5,7.61538 -9.90659,-0.99943 -22.13229,-4.20984 -27.08526,-7.11248 -4.17482,-2.44661 -9.56054,-8.87115 -12.85043,-15.3291 -2.034,-3.99267 -2.33832,-3.43193 9.5766,-17.6456 12.6017,-15.03292 25.53992,-28.19936 32.80606,-33.38471 l 6.50685,-4.64349 79.77309,-0.26753 c 43.8752,-0.14715 79.77193,0.0779 79.77052,0.5 -0.003,0.93447 -14.4135,13.36671 -21.99743,18.97782 -3.025,2.2381 -7.84754,5.24387 -10.71676,6.67949 l -5.21675,2.61022 -29.19991,0 c -16.05995,0 -28.96586,0.23405 -28.6798,0.52012 0.28607,0.28606 12.31479,1.58978 26.7305,2.89716 14.41571,1.30737 26.43419,2.60086 26.70774,2.87441 0.79585,0.79585 -15.45236,14.5466 -23.28785,19.70835 -3.93955,2.59525 -9.22134,5.23697 -11.73731,5.8705 -5.98173,1.50621 -17.94916,0.16471 -39.04683,-4.37701 -8.77084,-1.8881 -16.05358,-3.32631 -16.18388,-3.19601 -0.1303,0.13029 8.05834,3.328 18.19697,7.10601 10.13864,3.778 18.43388,7.16207 18.43388,7.52014 0,0.73642 -16.34058,6.16628 -25.64019,8.52006 -10.88463,2.75496 -17.74168,3.31464 -23.27152,1.89945 z"
         id="path4320"
         inkscape:connector-curvature="0" />
      <path
         style="fill:#c83737;fill-opacity:1;stroke:none;stroke-width:11.78206921;stroke-linecap:round;stroke-linejoin:round;stroke-miterlimit:4;stroke-dasharray:none;stroke-opacity:1"
         d="m 327.78571,332.47969 c -9.74713,-1.54333 -19.21605,-3.80065 -23.28767,-5.55161 -5.33774,-2.29543 -10.9227,-8.07605 -14.94779,-15.47147 l -2.66672,-4.89964 9.48671,-11.45453 c 11.93567,-14.41149 29.38113,-32.19144 35.90212,-36.59053 l 4.98665,-3.36401 79.51335,0.0454 79.51335,0.0454 -5.5,5.04413 c -8.34439,7.65275 -21.87929,17.62049 -27.68807,20.3908 -5.17101,2.46615 -5.2892,2.47429 -35.91667,2.47429 -16.90073,0 -30.5031,0.2255 -30.22749,0.5011 0.47272,0.47273 51.67548,5.4989 56.01855,5.4989 2.24197,0 -2.75317,4.89349 -15.09286,14.78571 -10.20049,8.17732 -17.02135,11.21429 -25.18661,11.21429 -7.16884,0 -26.76058,-3.34122 -43.40295,-7.40204 -5.49785,-1.34151 -10.13067,-2.30452 -10.29515,-2.14004 -0.31099,0.31098 12.90913,5.5297 30.51202,12.04478 5.62143,2.08057 9.9921,4.15287 9.7126,4.60511 -0.71847,1.16251 -18.3238,6.70914 -28.43337,8.95805 -15.44979,3.43686 -20.36259,2.35024 -38.42737,-8.49938 -5.80109,-3.4841 -10.24369,-5.82438 -9.87244,-5.20061 0.37124,0.62377 3.06558,4.14761 5.9874,7.83075 2.92183,3.68314 5.31241,6.94564 5.31241,7.25 0,0.58105 -1.82576,0.54611 -6,-0.11483 z"
         id="path4322"
         inkscape:connector-curvature="0" />
    </g>
    <g
       id="g4922"
       transform="matrix(1.1260163,-1.064472,1.0324667,1.1609215,-2159.051,2003.6939)"
       style="fill:#c83737;fill-opacity:1;stroke:#ffffff;stroke-width:39.89979935;stroke-linecap:round;stroke-linejoin:round;stroke-miterlimit:4;stroke-dasharray:none;stroke-opacity:1">
      <path
         style="fill:#c83737;fill-opacity:1;stroke:#ffffff;stroke-width:39.89979935;stroke-linecap:round;stroke-linejoin:round;stroke-miterlimit:4;stroke-dasharray:none;stroke-opacity:1"
         d="m 351.874,332.49108 c -5.97631,-1.52945 -10.70559,-3.84818 -21.5066,-10.54455 -4.35507,-2.70004 -7.29202,-4.09679 -6.52655,-3.10389 0.76546,0.99289 2.99065,3.83026 4.94486,6.30526 7.35493,9.31499 7.4141,8.41379 -0.5,7.61538 -9.90659,-0.99943 -22.13229,-4.20984 -27.08526,-7.11248 -4.17482,-2.44661 -9.56054,-8.87115 -12.85043,-15.3291 -2.034,-3.99267 -2.33832,-3.43193 9.5766,-17.6456 12.6017,-15.03292 25.53992,-28.19936 32.80606,-33.38471 l 6.50685,-4.64349 79.77309,-0.26753 c 43.8752,-0.14715 79.77193,0.0779 79.77052,0.5 -0.003,0.93447 -14.4135,13.36671 -21.99743,18.97782 -3.025,2.2381 -7.84754,5.24387 -10.71676,6.67949 l -5.21675,2.61022 -29.19991,0 c -16.05995,0 -28.96586,0.23405 -28.6798,0.52012 0.28607,0.28606 12.31479,1.58978 26.7305,2.89716 14.41571,1.30737 26.43419,2.60086 26.70774,2.87441 0.79585,0.79585 -15.45236,14.5466 -23.28785,19.70835 -3.93955,2.59525 -9.22134,5.23697 -11.73731,5.8705 -5.98173,1.50621 -17.94916,0.16471 -39.04683,-4.37701 -8.77084,-1.8881 -16.05358,-3.32631 -16.18388,-3.19601 -0.1303,0.13029 8.05834,3.328 18.19697,7.10601 10.13864,3.778 18.43388,7.16207 18.43388,7.52014 0,0.73642 -16.34058,6.16628 -25.64019,8.52006 -10.88463,2.75496 -17.74168,3.31464 -23.27152,1.89945 z"
         id="path4924"
         inkscape:connector-curvature="0" />
      <path
         style="fill:#c83737;fill-opacity:1;stroke:#ffffff;stroke-width:39.89979935;stroke-linecap:round;stroke-linejoin:round;stroke-miterlimit:4;stroke-dasharray:none;stroke-opacity:1"
         d="m 327.78571,332.47969 c -9.74713,-1.54333 -19.21605,-3.80065 -23.28767,-5.55161 -5.33774,-2.29543 -10.9227,-8.07605 -14.94779,-15.47147 l -2.66672,-4.89964 9.48671,-11.45453 c 11.93567,-14.41149 29.38113,-32.19144 35.90212,-36.59053 l 4.98665,-3.36401 79.51335,0.0454 79.51335,0.0454 -5.5,5.04413 c -8.34439,7.65275 -21.87929,17.62049 -27.68807,20.3908 -5.17101,2.46615 -5.2892,2.47429 -35.91667,2.47429 -16.90073,0 -30.5031,0.2255 -30.22749,0.5011 0.47272,0.47273 51.67548,5.4989 56.01855,5.4989 2.24197,0 -2.75317,4.89349 -15.09286,14.78571 -10.20049,8.17732 -17.02135,11.21429 -25.18661,11.21429 -7.16884,0 -26.76058,-3.34122 -43.40295,-7.40204 -5.49785,-1.34151 -10.13067,-2.30452 -10.29515,-2.14004 -0.31099,0.31098 12.90913,5.5297 30.51202,12.04478 5.62143,2.08057 9.9921,4.15287 9.7126,4.60511 -0.71847,1.16251 -18.3238,6.70914 -28.43337,8.95805 -15.44979,3.43686 -20.36259,2.35024 -38.42737,-8.49938 -5.80109,-3.4841 -10.24369,-5.82438 -9.87244,-5.20061 0.37124,0.62377 3.06558,4.14761 5.9874,7.83075 2.92183,3.68314 5.31241,6.94564 5.31241,7.25 0,0.58105 -1.82576,0.54611 -6,-0.11483 z"
         id="path4926"
         inkscape:connector-curvature="0" />
    </g>
    <text
       sodipodi:linespacing="125%"
       id="text4928"
       y="2239.7407"
       x="-1825.7721"
       style="font-style:normal;font-variant:normal;font-weight:normal;font-stretch:normal;font-size:541.86535645px;line-height:125%;font-family:'Hemi Head 426';-inkscape-font-specification:'Hemi Head 426, ';text-align:start;letter-spacing:0px;word-spacing:0px;text-anchor:start;fill:#ffffff;fill-opacity:1;stroke:#ffffff;stroke-width:57.7576561;stroke-linecap:round;stroke-linejoin:round;stroke-miterlimit:4;stroke-dasharray:none;stroke-opacity:1"
       xml:space="preserve"
       transform="scale(0.99783141,1.0021733)"><tspan
         y="2239.7407"
         x="-1825.7721"
         id="tspan4930"
         sodipodi:role="line"
         style="stroke:#ffffff;stroke-width:57.7576561;stroke-linecap:round;stroke-linejoin:round;stroke-miterlimit:4;stroke-dasharray:none">d</tspan></text>
    <text
       transform="scale(0.99783141,1.0021733)"
       xml:space="preserve"
       style="font-style:normal;font-variant:normal;font-weight:normal;font-stretch:normal;font-size:541.86535645px;line-height:125%;font-family:'Hemi Head 426';-inkscape-font-specification:'Hemi Head 426, ';text-align:start;letter-spacing:0px;word-spacing:0px;text-anchor:start;fill:#c83737;fill-opacity:1;stroke:none;stroke-width:8;stroke-linecap:butt;stroke-linejoin:miter;stroke-miterlimit:4;stroke-dasharray:none;stroke-opacity:1"
       x="-1825.772"
       y="2239.7402"
       id="text4932"
       sodipodi:linespacing="125%"><tspan
         style="fill:#c83737;fill-opacity:1;stroke:none;stroke-width:8;stroke-miterlimit:4;stroke-dasharray:none"
         sodipodi:role="line"
         id="tspan4934"
         x="-1825.772"
         y="2239.7402">d</tspan></text>
    <g
       style="fill:#c83737;fill-opacity:1;stroke:none;stroke-width:11.78206921;stroke-linecap:round;stroke-linejoin:round;stroke-miterlimit:4;stroke-dasharray:none;stroke-opacity:1"
       transform="matrix(1.1260163,-1.064472,1.0324667,1.1609215,-2159.051,2003.6939)"
       id="g4936">
      <path
         inkscape:connector-curvature="0"
         id="path4938"
         d="m 351.874,332.49108 c -5.97631,-1.52945 -10.70559,-3.84818 -21.5066,-10.54455 -4.35507,-2.70004 -7.29202,-4.09679 -6.52655,-3.10389 0.76546,0.99289 2.99065,3.83026 4.94486,6.30526 7.35493,9.31499 7.4141,8.41379 -0.5,7.61538 -9.90659,-0.99943 -22.13229,-4.20984 -27.08526,-7.11248 -4.17482,-2.44661 -9.56054,-8.87115 -12.85043,-15.3291 -2.034,-3.99267 -2.33832,-3.43193 9.5766,-17.6456 12.6017,-15.03292 25.53992,-28.19936 32.80606,-33.38471 l 6.50685,-4.64349 79.77309,-0.26753 c 43.8752,-0.14715 79.77193,0.0779 79.77052,0.5 -0.003,0.93447 -14.4135,13.36671 -21.99743,18.97782 -3.025,2.2381 -7.84754,5.24387 -10.71676,6.67949 l -5.21675,2.61022 -29.19991,0 c -16.05995,0 -28.96586,0.23405 -28.6798,0.52012 0.28607,0.28606 12.31479,1.58978 26.7305,2.89716 14.41571,1.30737 26.43419,2.60086 26.70774,2.87441 0.79585,0.79585 -15.45236,14.5466 -23.28785,19.70835 -3.93955,2.59525 -9.22134,5.23697 -11.73731,5.8705 -5.98173,1.50621 -17.94916,0.16471 -39.04683,-4.37701 -8.77084,-1.8881 -16.05358,-3.32631 -16.18388,-3.19601 -0.1303,0.13029 8.05834,3.328 18.19697,7.10601 10.13864,3.778 18.43388,7.16207 18.43388,7.52014 0,0.73642 -16.34058,6.16628 -25.64019,8.52006 -10.88463,2.75496 -17.74168,3.31464 -23.27152,1.89945 z"
         style="fill:#c83737;fill-opacity:1;stroke:none;stroke-width:11.78206921;stroke-linecap:round;stroke-linejoin:round;stroke-miterlimit:4;stroke-dasharray:none;stroke-opacity:1" />
      <path
         inkscape:connector-curvature="0"
         id="path4940"
         d="m 327.78571,332.47969 c -9.74713,-1.54333 -19.21605,-3.80065 -23.28767,-5.55161 -5.33774,-2.29543 -10.9227,-8.07605 -14.94779,-15.47147 l -2.66672,-4.89964 9.48671,-11.45453 c 11.93567,-14.41149 29.38113,-32.19144 35.90212,-36.59053 l 4.98665,-3.36401 79.51335,0.0454 79.51335,0.0454 -5.5,5.04413 c -8.34439,7.65275 -21.87929,17.62049 -27.68807,20.3908 -5.17101,2.46615 -5.2892,2.47429 -35.91667,2.47429 -16.90073,0 -30.5031,0.2255 -30.22749,0.5011 0.47272,0.47273 51.67548,5.4989 56.01855,5.4989 2.24197,0 -2.75317,4.89349 -15.09286,14.78571 -10.20049,8.17732 -17.02135,11.21429 -25.18661,11.21429 -7.16884,0 -26.76058,-3.34122 -43.40295,-7.40204 -5.49785,-1.34151 -10.13067,-2.30452 -10.29515,-2.14004 -0.31099,0.31098 12.90913,5.5297 30.51202,12.04478 5.62143,2.08057 9.9921,4.15287 9.7126,4.60511 -0.71847,1.16251 -18.3238,6.70914 -28.43337,8.95805 -15.44979,3.43686 -20.36259,2.35024 -38.42737,-8.49938 -5.80109,-3.4841 -10.24369,-5.82438 -9.87244,-5.20061 0.37124,0.62377 3.06558,4.14761 5.9874,7.83075 2.92183,3.68314 5.31241,6.94564 5.31241,7.25 0,0.58105 -1.82576,0.54611 -6,-0.11483 z"
         style="fill:#c83737;fill-opacity:1;stroke:none;stroke-width:11.78206921;stroke-linecap:round;stroke-linejoin:round;stroke-miterlimit:4;stroke-dasharray:none;stroke-opacity:1" />
    </g>
  </g>
</svg>
