<?xml version="1.0" encoding="UTF-8" standalone="no"?>
<!-- Created with Inkscape (http://www.inkscape.org/) -->

<svg
   xmlns:dc="http://purl.org/dc/elements/1.1/"
   xmlns:cc="http://creativecommons.org/ns#"
   xmlns:rdf="http://www.w3.org/1999/02/22-rdf-syntax-ns#"
   xmlns:svg="http://www.w3.org/2000/svg"
   xmlns="http://www.w3.org/2000/svg"
   xmlns:sodipodi="http://sodipodi.sourceforge.net/DTD/sodipodi-0.dtd"
   xmlns:inkscape="http://www.inkscape.org/namespaces/inkscape"
   width="512"
   height="512"
   viewBox="0 0 512.00001 512.00001"
   id="svg6242"
   version="1.1"
   inkscape:version="0.91 r13725"
   sodipodi:docname="logo.svg"
   inkscape:export-filename="/home/chrism/dev/dopeloop-ui/public/style/img/icon.png"
   inkscape:export-xdpi="90"
   inkscape:export-ydpi="90">
  <defs
     id="defs6244" />
  <sodipodi:namedview
     id="base"
     pagecolor="#424242"
     bordercolor="#666666"
     borderopacity="1.0"
     inkscape:pageopacity="0"
     inkscape:pageshadow="2"
     inkscape:zoom="0.3535534"
     inkscape:cx="-127.35915"
     inkscape:cy="315.82304"
     inkscape:document-units="px"
     inkscape:current-layer="layer1"
     showgrid="false"
     borderlayer="true"
     inkscape:showpageshadow="false"
     units="px"
     inkscape:window-width="1920"
     inkscape:window-height="1080"
     inkscape:window-x="0"
     inkscape:window-y="0"
     inkscape:window-maximized="1" />
  <metadata
     id="metadata6247">
    <rdf:RDF>
      <cc:Work
         rdf:about="">
        <dc:format>image/svg+xml</dc:format>
        <dc:type
           rdf:resource="http://purl.org/dc/dcmitype/StillImage" />
        <dc:title />
      </cc:Work>
    </rdf:RDF>
  </metadata>
  <g
     inkscape:label="Layer 1"
     inkscape:groupmode="layer"
     id="layer1"
     transform="translate(0,-540.36216)">
    <g
       id="g4922"
       transform="matrix(1.0517413,-0.99425662,0.96436248,1.0843441,-299.54967,794.65953)"
       style="fill:#c83737;fill-opacity:1;stroke:#ffffff;stroke-width:39.89979935;stroke-linecap:round;stroke-linejoin:round;stroke-miterlimit:4;stroke-dasharray:none;stroke-opacity:1">
      <path
         style="fill:#c83737;fill-opacity:1;stroke:#ffffff;stroke-width:39.89979935;stroke-linecap:round;stroke-linejoin:round;stroke-miterlimit:4;stroke-dasharray:none;stroke-opacity:1"
         d="m 351.874,332.49108 c -5.97631,-1.52945 -10.70559,-3.84818 -21.5066,-10.54455 -4.35507,-2.70004 -7.29202,-4.09679 -6.52655,-3.10389 0.76546,0.99289 2.99065,3.83026 4.94486,6.30526 7.35493,9.31499 7.4141,8.41379 -0.5,7.61538 -9.90659,-0.99943 -22.13229,-4.20984 -27.08526,-7.11248 -4.17482,-2.44661 -9.56054,-8.87115 -12.85043,-15.3291 -2.034,-3.99267 -2.33832,-3.43193 9.5766,-17.6456 12.6017,-15.03292 25.53992,-28.19936 32.80606,-33.38471 l 6.50685,-4.64349 79.77309,-0.26753 c 43.8752,-0.14715 79.77193,0.0779 79.77052,0.5 -0.003,0.93447 -14.4135,13.36671 -21.99743,18.97782 -3.025,2.2381 -7.84754,5.24387 -10.71676,6.67949 l -5.21675,2.61022 -29.19991,0 c -16.05995,0 -28.96586,0.23405 -28.6798,0.52012 0.28607,0.28606 12.31479,1.58978 26.7305,2.89716 14.41571,1.30737 26.43419,2.60086 26.70774,2.87441 0.79585,0.79585 -15.45236,14.5466 -23.28785,19.70835 -3.93955,2.59525 -9.22134,5.23697 -11.73731,5.8705 -5.98173,1.50621 -17.94916,0.16471 -39.04683,-4.37701 -8.77084,-1.8881 -16.05358,-3.32631 -16.18388,-3.19601 -0.1303,0.13029 8.05834,3.328 18.19697,7.10601 10.13864,3.778 18.43388,7.16207 18.43388,7.52014 0,0.73642 -16.34058,6.16628 -25.64019,8.52006 -10.88463,2.75496 -17.74168,3.31464 -23.27152,1.89945 z"
         id="path4924"
         inkscape:connector-curvature="0" />
      <path
         style="fill:#c83737;fill-opacity:1;stroke:#ffffff;stroke-width:39.89979935;stroke-linecap:round;stroke-linejoin:round;stroke-miterlimit:4;stroke-dasharray:none;stroke-opacity:1"
         d="m 327.78571,332.47969 c -9.74713,-1.54333 -19.21605,-3.80065 -23.28767,-5.55161 -5.33774,-2.29543 -10.9227,-8.07605 -14.94779,-15.47147 l -2.66672,-4.89964 9.48671,-11.45453 c 11.93567,-14.41149 29.38113,-32.19144 35.90212,-36.59053 l 4.98665,-3.36401 79.51335,0.0454 79.51335,0.0454 -5.5,5.04413 c -8.34439,7.65275 -21.87929,17.62049 -27.68807,20.3908 -5.17101,2.46615 -5.2892,2.47429 -35.91667,2.47429 -16.90073,0 -30.5031,0.2255 -30.22749,0.5011 0.47272,0.47273 51.67548,5.4989 56.01855,5.4989 2.24197,0 -2.75317,4.89349 -15.09286,14.78571 -10.20049,8.17732 -17.02135,11.21429 -25.18661,11.21429 -7.16884,0 -26.76058,-3.34122 -43.40295,-7.40204 -5.49785,-1.34151 -10.13067,-2.30452 -10.29515,-2.14004 -0.31099,0.31098 12.90913,5.5297 30.51202,12.04478 5.62143,2.08057 9.9921,4.15287 9.7126,4.60511 -0.71847,1.16251 -18.3238,6.70914 -28.43337,8.95805 -15.44979,3.43686 -20.36259,2.35024 -38.42737,-8.49938 -5.80109,-3.4841 -10.24369,-5.82438 -9.87244,-5.20061 0.37124,0.62377 3.06558,4.14761 5.9874,7.83075 2.92183,3.68314 5.31241,6.94564 5.31241,7.25 0,0.58105 -1.82576,0.54611 -6,-0.11483 z"
         id="path4926"
         inkscape:connector-curvature="0" />
    </g>
    <g
       transform="scale(0.99783141,1.0021733)"
       style="font-style:normal;font-variant:normal;font-weight:normal;font-stretch:normal;font-size:506.12249756px;line-height:125%;font-family:'Hemi Head 426';-inkscape-font-specification:'Hemi Head 426, ';text-align:start;letter-spacing:0px;word-spacing:0px;text-anchor:start;fill:#ffffff;fill-opacity:1;stroke:#ffffff;stroke-width:53.94780731;stroke-linecap:round;stroke-linejoin:round;stroke-miterlimit:4;stroke-dasharray:none;stroke-opacity:1"
       id="text4928">
      <path
         d="m 266.51379,1017.4714 -159.93471,0 q -17.714287,0 -29.861227,-1.5184 -11.640817,-1.5184 -19.232655,-5.0612 -7.085715,-4.049 -10.628572,-10.6286 -3.036735,-6.57958 -3.036735,-17.20816 0,-11.64081 3.542857,-27.33061 l 20.2449,-95.15103 q 4.555102,-19.73878 10.12245,-31.88572 6.07347,-12.14694 15.183675,-18.72653 9.616327,-6.57959 23.787757,-8.60408 14.67755,-2.53061 35.9347,-2.53061 l 76.42449,0 -11.13469,52.63674 -52.63674,0 q -10.62857,0 -17.71429,1.01224 -6.57959,0.50612 -11.13469,3.54286 -4.04898,3.03673 -6.57959,9.1102 -2.53062,6.07347 -4.55511,16.70205 l -11.13469,52.63673 q -2.53061,12.65307 -2.53061,16.70205 0,8.60408 5.56734,11.13469 6.07347,2.53061 23.78776,2.53061 l 74.90613,0 50.61225,-238.88981 62.25307,0 -62.25307,291.52658 z"
         style="stroke:#ffffff;stroke-width:53.94780731;stroke-linecap:round;stroke-linejoin:round;stroke-miterlimit:4;stroke-dasharray:none"
         id="path4155" />
    </g>
    <g
       transform="scale(0.99783141,1.0021733)"
       style="font-style:normal;font-variant:normal;font-weight:normal;font-stretch:normal;font-size:506.12249756px;line-height:125%;font-family:'Hemi Head 426';-inkscape-font-specification:'Hemi Head 426, ';text-align:start;letter-spacing:0px;word-spacing:0px;text-anchor:start;fill:#c83737;fill-opacity:1;stroke:none;stroke-width:8;stroke-linecap:butt;stroke-linejoin:miter;stroke-miterlimit:4;stroke-dasharray:none;stroke-opacity:1"
       id="text4932">
      <path
         d="m 266.5139,1017.4709 -159.93471,0 q -17.714284,0 -29.861224,-1.5184 -11.640817,-1.5183 -19.232654,-5.0612 -7.085715,-4.049 -10.628573,-10.6286 -3.036735,-6.57957 -3.036735,-17.20814 0,-11.64082 3.542858,-27.33062 l 20.244899,-95.15103 q 4.555103,-19.73878 10.12245,-31.88572 6.07347,-12.14694 15.183675,-18.72653 9.616324,-6.57959 23.787754,-8.60408 14.67756,-2.53061 35.9347,-2.53061 l 76.4245,0 -11.1347,52.63674 -52.63674,0 q -10.62857,0 -17.71428,1.01224 -6.5796,0.50612 -11.1347,3.54286 -4.04898,3.03673 -6.57959,9.1102 -2.53061,6.07347 -4.5551,16.70205 l -11.1347,52.63674 q -2.53061,12.65306 -2.53061,16.70204 0,8.60408 5.56735,11.13469 6.07347,2.53062 23.78775,2.53062 l 74.90613,0 50.61225,-238.88982 62.25307,0 -62.25307,291.52657 z"
         style="fill:#c83737;fill-opacity:1;stroke:none;stroke-width:8;stroke-miterlimit:4;stroke-dasharray:none"
         id="path4152" />
    </g>
    <g
       style="fill:#c83737;fill-opacity:1;stroke:none;stroke-width:11.78206921;stroke-linecap:round;stroke-linejoin:round;stroke-miterlimit:4;stroke-dasharray:none;stroke-opacity:1"
       transform="matrix(1.0517413,-0.99425662,0.96436248,1.0843441,-299.54967,794.65953)"
       id="g4936">
      <path
         inkscape:connector-curvature="0"
         id="path4938"
         d="m 351.874,332.49108 c -5.97631,-1.52945 -10.70559,-3.84818 -21.5066,-10.54455 -4.35507,-2.70004 -7.29202,-4.09679 -6.52655,-3.10389 0.76546,0.99289 2.99065,3.83026 4.94486,6.30526 7.35493,9.31499 7.4141,8.41379 -0.5,7.61538 -9.90659,-0.99943 -22.13229,-4.20984 -27.08526,-7.11248 -4.17482,-2.44661 -9.56054,-8.87115 -12.85043,-15.3291 -2.034,-3.99267 -2.33832,-3.43193 9.5766,-17.6456 12.6017,-15.03292 25.53992,-28.19936 32.80606,-33.38471 l 6.50685,-4.64349 79.77309,-0.26753 c 43.8752,-0.14715 79.77193,0.0779 79.77052,0.5 -0.003,0.93447 -14.4135,13.36671 -21.99743,18.97782 -3.025,2.2381 -7.84754,5.24387 -10.71676,6.67949 l -5.21675,2.61022 -29.19991,0 c -16.05995,0 -28.96586,0.23405 -28.6798,0.52012 0.28607,0.28606 12.31479,1.58978 26.7305,2.89716 14.41571,1.30737 26.43419,2.60086 26.70774,2.87441 0.79585,0.79585 -15.45236,14.5466 -23.28785,19.70835 -3.93955,2.59525 -9.22134,5.23697 -11.73731,5.8705 -5.98173,1.50621 -17.94916,0.16471 -39.04683,-4.37701 -8.77084,-1.8881 -16.05358,-3.32631 -16.18388,-3.19601 -0.1303,0.13029 8.05834,3.328 18.19697,7.10601 10.13864,3.778 18.43388,7.16207 18.43388,7.52014 0,0.73642 -16.34058,6.16628 -25.64019,8.52006 -10.88463,2.75496 -17.74168,3.31464 -23.27152,1.89945 z"
         style="fill:#c83737;fill-opacity:1;stroke:none;stroke-width:11.78206921;stroke-linecap:round;stroke-linejoin:round;stroke-miterlimit:4;stroke-dasharray:none;stroke-opacity:1" />
      <path
         inkscape:connector-curvature="0"
         id="path4940"
         d="m 327.78571,332.47969 c -9.74713,-1.54333 -19.21605,-3.80065 -23.28767,-5.55161 -5.33774,-2.29543 -10.9227,-8.07605 -14.94779,-15.47147 l -2.66672,-4.89964 9.48671,-11.45453 c 11.93567,-14.41149 29.38113,-32.19144 35.90212,-36.59053 l 4.98665,-3.36401 79.51335,0.0454 79.51335,0.0454 -5.5,5.04413 c -8.34439,7.65275 -21.87929,17.62049 -27.68807,20.3908 -5.17101,2.46615 -5.2892,2.47429 -35.91667,2.47429 -16.90073,0 -30.5031,0.2255 -30.22749,0.5011 0.47272,0.47273 51.67548,5.4989 56.01855,5.4989 2.24197,0 -2.75317,4.89349 -15.09286,14.78571 -10.20049,8.17732 -17.02135,11.21429 -25.18661,11.21429 -7.16884,0 -26.76058,-3.34122 -43.40295,-7.40204 -5.49785,-1.34151 -10.13067,-2.30452 -10.29515,-2.14004 -0.31099,0.31098 12.90913,5.5297 30.51202,12.04478 5.62143,2.08057 9.9921,4.15287 9.7126,4.60511 -0.71847,1.16251 -18.3238,6.70914 -28.43337,8.95805 -15.44979,3.43686 -20.36259,2.35024 -38.42737,-8.49938 -5.80109,-3.4841 -10.24369,-5.82438 -9.87244,-5.20061 0.37124,0.62377 3.06558,4.14761 5.9874,7.83075 2.92183,3.68314 5.31241,6.94564 5.31241,7.25 0,0.58105 -1.82576,0.54611 -6,-0.11483 z"
         style="fill:#c83737;fill-opacity:1;stroke:none;stroke-width:11.78206921;stroke-linecap:round;stroke-linejoin:round;stroke-miterlimit:4;stroke-dasharray:none;stroke-opacity:1" />
    </g>
  </g>
</svg>
