<!--?xml version="1.0" encoding="UTF-8"?-->
<!-- Created with Inkscape (http://www.inkscape.org/) -->
<svg width="640px" height="480px" viewBox="0 0 640 480" version="1.1" xmlns="http://www.w3.org/2000/svg" xmlns:cc="http://creativecommons.org/ns#" xmlns:dc="http://purl.org/dc/elements/1.1/" xmlns:rdf="http://www.w3.org/1999/02/22-rdf-syntax-ns#">
 <metadata>
  <rdf:rdf>
   <cc:work rdf:about="">
    <dc:format>image/svg+xml</dc:format>
    <dc:type rdf:resource="http://purl.org/dc/dcmitype/StillImage"></dc:type>
   </cc:work>
  </rdf:rdf>
 </metadata>
 <g fill="#c83737">
  <g stroke="#fff" stroke-linecap="round" stroke-linejoin="round">
   <g transform="matrix(1.067 0 0 1.067 -533.65 -702.5)" stroke-width="7.4976">
    <path d="m829.03 924.65c-6.0933-0.7363-12.592 0.6845-19.312 5.3125l-1.1562 0.7812 0.6875 1.1875c5.1281 8.8884 12.628 12.952 20.812 14.031 8.1848 1.0797 17.079-0.647 25.625-2.9688l2.6562-0.7187-2.0625-1.8438c-6.6014-5.937-13.573-11.65-21.312-14.375-1.9349-0.6813-3.9064-1.1608-5.9375-1.4062z" color="#000000" filter="url(#blurry)" style="text-decoration-line:none;text-indent:0;text-transform:none"></path>
    <path d="m852.12 889.25-2.7188 0.5313c-8.7036 1.7529-17.413 3.948-24.219 8.5312s-11.571 11.721-11.969 22.594l-0.0625 1.375 1.375 0.1562c10.192 1.1908 17.936-2.39 23.688-8.3125s9.6681-14.07 12.906-22.312z" color="#000000" filter="url(#blurry)" style="text-decoration-line:none;text-indent:0;text-transform:none"></path>
    <path d="m859.18 913.68c-6.1338-0.2187-12.476 1.7269-18.781 6.9063l-1.0938 0.875 0.8125 1.1562c5.8609 8.4233 13.66 11.835 21.906 12.219 8.2467 0.3841 16.962-2.1206 25.281-5.1563l2.5625-0.9375-2.1875-1.6562c-7.0795-5.3579-14.495-10.439-22.438-12.5-1.9855-0.5154-4.0179-0.8334-6.0625-0.9063z" color="#000000" filter="url(#blurry)" style="text-decoration-line:none;text-indent:0;text-transform:none"></path>
    <path d="m872.18 865.4-2.0312 1.8437c-6.5702 5.9715-12.949 12.355-16.438 19.781s-3.8953 15.964 1.3438 25.5l0.65625 1.2187 1.2812-0.5625c9.3587-4.2091 14.135-11.246 16.031-19.281 1.8966-8.0349 1.0764-17.045-0.375-25.781z" color="#000000" filter="url(#blurry)" style="text-decoration-line:none;text-indent:0;text-transform:none"></path>
    <path d="m890.46 897.97c-8.2028 0.2009-16.033 3.6431-22.219 12.594l-0.78125 1.125 1.0625 0.875c7.9503 6.488 16.403 7.6472 24.438 5.75s15.71-6.6696 22.875-11.875l2.2188-1.625-2.5625-1c-8.2795-3.2057-16.828-6.0447-25.031-5.8437z" color="#000000" filter="url(#blurry)" style="text-decoration-line:none;text-indent:0;text-transform:none"></path>
    <path d="m886.53 847-1.3438 2.4063c-4.3256 7.7534-8.34 15.818-9.2812 23.969-0.94126 8.1512 1.3712 16.38 9.375 23.75l1.0312 0.9375 1.0312-0.9375c7.5302-6.9712 9.8244-15.154 9.0625-23.375s-4.4349-16.494-8.5938-24.312z" color="#000000" filter="url(#blurry)" style="text-decoration-line:none;text-indent:0;text-transform:none"></path>
    <path d="m918.71 876.28c-2.1008 0.1124-4.1525 0.3731-6.1562 0.8125-8.0149 1.7574-15.067 6.63-19.438 16.594l-0.5625 1.2813 1.2188 0.6562c9.0392 4.8574 17.567 4.3596 25.094 0.9688s14.175-9.527 20.219-16l1.875-2.0313-2.7188-0.4687c-6.5536-1.1794-13.229-2.1498-19.531-1.8125z" color="#000000" filter="url(#blurry)" style="text-decoration-line:none;text-indent:0;text-transform:none"></path>
    <path d="m899.65 827.5-0.875 2.625c-2.8124 8.4212-5.2431 17.097-4.6562 25.281s4.3931 15.836 13.625 21.594l1.1875 0.75 0.8125-1.125c6.1065-8.2469 6.8671-16.72 4.5938-24.656-2.2734-7.9366-7.4319-15.401-12.969-22.312z" color="#000000" filter="url(#blurry)" style="text-decoration-line:none;text-indent:0;text-transform:none"></path>
    <path d="m957.4 848.9-2.75 0.031c-8.8778 0.1083-17.868 0.6647-25.406 3.9062s-13.53 9.3584-15.938 19.969l-0.3125 1.3437 1.3125 0.4063c9.7947 3.0603 18.062 1.003 24.812-3.75 6.7502-4.7531 12.102-12.063 16.812-19.562l1.4688-2.3438z" color="#000000" filter="url(#blurry)" style="text-decoration-line:none;text-indent:0;text-transform:none"></path>
    <path d="m905.68 796.22-0.5625 2.6875c-1.8297 8.6878-3.2701 17.562-1.75 25.625 1.5201 8.0632 6.2009 15.275 16.031 19.938l1.25 0.5937 0.6875-1.2187c5.1221-8.8919 4.8859-17.407 1.7188-25.031s-9.1144-14.424-15.406-20.656z" color="#000000" filter="url(#blurry)" style="text-decoration-line:none;text-indent:0;text-transform:none"></path>
    <path d="m962.65 819.81-2.7188 0.375c-8.8021 1.1618-17.682 2.7614-24.781 6.875s-12.307 10.898-13.438 21.719l-0.15625 1.375 1.375 0.25c10.089 1.8756 18.018-1.1666 24.156-6.6875 6.138-5.521 10.588-13.401 14.375-21.406z" color="#000000" filter="url(#blurry)" style="text-decoration-line:none;text-indent:0;text-transform:none"></path>
    <path d="m903.53 766.4 0.0625 2.7812c0.15779 8.8771 0.74787 17.855 4.0312 25.375s9.4389 13.464 20.062 15.812l1.3438 0.3125 0.40625-1.3125c3.0058-9.8116 0.88434-18.058-3.9062-24.781s-12.131-12.05-19.656-16.719z" color="#000000" filter="url(#blurry)" style="text-decoration-line:none;text-indent:0;text-transform:none"></path>
    <path d="m957.4 782.34-2.375 1.375c-7.697 4.4251-15.282 9.2746-20.281 15.781-4.9991 6.5067-7.2619 14.782-4.1875 25.219l0.40625 1.3437 1.3438-0.2812c10.043-2.1063 16.238-7.9643 19.812-15.406s4.7022-16.437 5.1562-25.281z" color="#000000" filter="url(#blurry)" style="text-decoration-line:none;text-indent:0;text-transform:none"></path>
    <path d="m885.12 734.9 0.78125 2.6562c2.499 8.5195 5.4391 17.022 10.594 23.406 5.1546 6.3841 12.665 10.513 23.531 9.9687l1.375-0.094 0.0625-1.375c0.30489-10.257-3.946-17.657-10.344-22.875s-14.883-8.3931-23.375-10.906l-2.625-0.7813z" color="#000000" filter="url(#blurry)" style="text-decoration-line:none;text-indent:0;text-transform:none"></path>
    <path d="m942.56 743.81-1.75 2.125c-5.6633 6.8376-11.092 14.031-13.5 21.875s-1.6241 16.392 4.9062 25.094l0.84375 1.0937 1.1875-0.75c8.6723-5.4857 12.411-13.122 13.156-21.344 0.74561-8.222-1.3635-17.024-4.0312-25.469z" color="#000000" filter="url(#blurry)" style="text-decoration-line:none;text-indent:0;text-transform:none"></path>
    <path d="m879.87 701.53 0.5 2.7187c1.5691 8.7387 3.5613 17.505 8 24.406 4.4387 6.901 11.482 11.811 22.344 12.438l1.375 0.094 0.1875-1.375c1.4053-10.165-2.0126-17.969-7.8125-23.844s-13.89-9.9638-22.062-13.375l-2.5312-1.0624z" color="#000000" filter="url(#blurry)" style="text-decoration-line:none;text-indent:0;text-transform:none"></path>
    <path d="m923.31 708.65-1.2812 2.4375c-4.157 7.8451-8.0164 15.987-8.7812 24.156s1.745 16.368 9.9062 23.562l1.0312 0.9063 1-0.9375c7.3777-7.1324 9.5019-15.392 8.5625-23.594s-4.7669-16.398-9.0938-24.125z" color="#000000" filter="url(#blurry)" style="text-decoration-line:none;text-indent:0;text-transform:none"></path>
    <path d="m771.06 924.97c-2.0311 0.2454-4.0339 0.7249-5.9688 1.4062-7.7395 2.7251-14.711 8.438-21.312 14.375l-2.0312 1.8125 2.6562 0.75c8.5462 2.3218 17.44 4.0485 25.625 2.9688 8.1848-1.0798 15.653-5.1429 20.781-14.031l0.6875-1.2187-1.125-0.7813c-6.7206-4.628-13.219-6.0175-19.312-5.2812z" color="#000000" filter="url(#blurry)" style="text-decoration-line:none;text-indent:0;text-transform:none"></path>
    <path d="m747.96 889.56 1 2.5625c3.2381 8.2428 7.1547 16.39 12.906 22.312s13.464 9.5033 23.656 8.3125l1.375-0.1562-0.0312-1.375c-0.39762-10.873-5.1628-18.011-11.969-22.594s-15.546-6.7783-24.25-8.5312l-2.6875-0.5313z" color="#000000" filter="url(#blurry)" style="text-decoration-line:none;text-indent:0;text-transform:none"></path>
    <path d="m740.9 914c-2.0446 0.073-4.077 0.3597-6.0625 0.875-7.9422 2.0613-15.358 7.1734-22.438 12.531l-2.2188 1.6562 2.5938 0.9375c8.3194 3.0357 17.035 5.5092 25.281 5.125s16.045-3.7955 21.906-12.219l0.78125-1.125-1.0625-0.875c-6.3055-5.1794-12.647-7.125-18.781-6.9063z" color="#000000" filter="url(#blurry)" style="text-decoration-line:none;text-indent:0;text-transform:none"></path>
    <path d="m727.87 865.72-0.4375 2.6875c-1.4514 8.7362-2.3028 17.778-0.40625 25.812 1.8966 8.0348 6.7038 15.072 16.062 19.281l1.2812 0.5625 0.65625-1.2187c5.2391-9.5356 4.8014-18.105 1.3125-25.531s-9.836-13.778-16.406-19.75z" color="#000000" filter="url(#blurry)" style="text-decoration-line:none;text-indent:0;text-transform:none"></path>
    <path d="m709.59 898.25c-8.2028-0.201-16.752 2.6693-25.031 5.875l-2.5625 1 2.25 1.5938c7.1646 5.2053 14.84 10.009 22.875 11.906 8.0347 1.8972 16.487 0.738 24.438-5.75l1.0625-0.875-0.78125-1.125c-6.1855-8.9506-14.047-12.424-22.25-12.625z" color="#000000" filter="url(#blurry)" style="text-decoration-line:none;text-indent:0;text-transform:none"></path>
    <path d="m713.56 847.28-1.2812 2.4375c-4.1588 7.8187-7.8319 16.092-8.5938 24.312-0.7619 8.2204 1.5323 16.435 9.0625 23.406l1.0312 0.9375 1-0.9375c8.0038-7.3697 10.348-15.63 9.4062-23.781-0.94127-8.1512-4.9557-16.215-9.2812-23.969z" color="#000000" filter="url(#blurry)" style="text-decoration-line:none;text-indent:0;text-transform:none"></path>
    <path d="m681.34 876.59c-6.3025-0.3373-12.946 0.6019-19.5 1.7812l-2.7188 0.5 1.875 2c6.0438 6.473 12.692 12.64 20.219 16.031s16.023 3.8574 25.062-1l1.2188-0.6563-0.5625-1.25c-4.3702-9.9637-11.391-14.836-19.406-16.594-2.0037-0.4394-4.0867-0.7001-6.1875-0.8125z" color="#000000" filter="url(#blurry)" style="text-decoration-line:none;text-indent:0;text-transform:none"></path>
    <path d="m700.4 827.81-1.7188 2.1563c-5.5369 6.9116-10.664 14.345-12.938 22.281s-1.544 16.441 4.5625 24.688l0.84375 1.0938 1.1562-0.7188c9.2319-5.7573 13.069-13.441 13.656-21.625 0.58689-8.1843-1.8751-16.86-4.6875-25.281z" color="#000000" filter="url(#blurry)" style="text-decoration-line:none;text-indent:0;text-transform:none"></path>
    <path d="m642.68 849.22 1.4688 2.3437c4.7106 7.4992 10.062 14.778 16.812 19.531 6.7502 4.753 15.018 6.8416 24.812 3.7812l1.3125-0.4062-0.3125-1.3438c-2.4071-10.61-8.3996-16.758-15.938-20-7.5379-3.2415-16.528-3.7666-25.406-3.875l-2.75-0.031z" color="#000000" filter="url(#blurry)" style="text-decoration-line:none;text-indent:0;text-transform:none"></path>
    <path d="m694.37 796.5-1.9375 1.9375c-6.2918 6.2323-12.239 13.064-15.406 20.688-3.1672 7.624-3.4034 16.139 1.7188 25.031l0.6875 1.1875 1.25-0.5938c9.8304-4.6625 14.511-11.843 16.031-19.906 1.5201-8.0633 0.0797-16.968-1.75-25.656z" color="#000000" filter="url(#blurry)" style="text-decoration-line:none;text-indent:0;text-transform:none"></path>
    <path d="m637.43 820.12 1.1562 2.5c3.7868 8.0055 8.237 15.885 14.375 21.406 6.138 5.5209 14.099 8.5631 24.188 6.6875l1.375-0.25-0.15625-1.375c-1.1302-10.821-6.3691-17.605-13.469-21.719-7.0997-4.1136-15.948-5.7132-24.75-6.875z" color="#000000" filter="url(#blurry)" style="text-decoration-line:none;text-indent:0;text-transform:none"></path>
    <path d="m696.53 766.72-2.3125 1.4687c-7.5253 4.6688-14.866 9.9639-19.656 16.688-4.7906 6.7236-6.912 14.97-3.9062 24.781l0.40625 1.3437 1.3438-0.3125c10.624-2.348 16.779-8.2927 20.062-15.812 3.2834-7.5198 3.8735-16.529 4.0312-25.406l0.0312-2.75z" color="#000000" filter="url(#blurry)" style="text-decoration-line:none;text-indent:0;text-transform:none"></path>
    <path d="m642.65 782.65 0.15625 2.75c0.45407 8.8443 1.551 17.839 5.125 25.281 3.574 7.442 9.7693 13.269 19.812 15.375l1.375 0.2813 0.375-1.3125c3.0744-10.437 0.84281-18.712-4.1562-25.219-4.9991-6.5066-12.584-11.356-20.281-15.781z" color="#000000" filter="url(#blurry)" style="text-decoration-line:none;text-indent:0;text-transform:none"></path>
    <path d="m714.96 735.22-2.6562 0.7812c-8.4919 2.5132-16.946 5.6884-23.344 10.906-6.3977 5.2178-10.649 12.618-10.344 22.875l0.0312 1.375 1.4062 0.062c10.866 0.5441 18.377-3.5534 23.531-9.9375 5.1546-6.3842 8.0947-14.918 10.594-23.438l0.78125-2.625z" color="#000000" filter="url(#blurry)" style="text-decoration-line:none;text-indent:0;text-transform:none"></path>
    <path d="m657.53 744.12-0.84375 2.625c-2.6678 8.4446-4.7456 17.247-4 25.469 0.7456 8.2219 4.484 15.858 13.156 21.344l1.1875 0.75 0.8125-1.125c6.5303-8.7022 7.314-17.218 4.9062-25.062-2.4078-7.8441-7.8054-15.069-13.469-21.906z" color="#000000" filter="url(#blurry)" style="text-decoration-line:none;text-indent:0;text-transform:none"></path>
    <path d="m720.21 701.84-2.5625 1.0625c-8.1726 3.4111-16.231 7.4998-22.031 13.375-5.8 5.8751-9.2178 13.679-7.8125 23.844l0.1875 1.3438 1.375-0.062c10.862-0.6267 17.905-5.5365 22.344-12.438 4.4387-6.9011 6.4309-15.668 8-24.406l0.5-2.7187z" color="#000000" filter="url(#blurry)" style="text-decoration-line:none;text-indent:0;text-transform:none"></path>
    <path d="m676.78 708.97-1.3438 2.4062c-4.3269 7.727-8.1856 15.923-9.125 24.125-0.93941 8.2021 1.1848 16.43 8.5625 23.562l1 0.96875 1.0312-0.90625c8.1613-7.195 10.671-15.393 9.9062-23.562-0.76486-8.1696-4.593-16.311-8.75-24.156z" color="#000000" filter="url(#blurry)" style="text-decoration-line:none;text-indent:0;text-transform:none"></path>
   </g>
   <g transform="matrix(.74904 0 0 .74904 256.05 184.35)" stroke-width="10.68">
    <path d="m351.87 332.49c-5.9763-1.5294-10.706-3.8482-21.507-10.545-4.3551-2.7-7.292-4.0968-6.5266-3.1039 0.76546 0.99289 2.9906 3.8303 4.9449 6.3053 7.3549 9.315 7.4141 8.4138-0.5 7.6154-9.9066-0.99943-22.132-4.2098-27.085-7.1125-4.1748-2.4466-9.5605-8.8712-12.85-15.329-2.034-3.9927-2.3383-3.4319 9.5766-17.646 12.602-15.033 25.54-28.199 32.806-33.385l6.5068-4.6435 79.773-0.26753c43.875-0.14715 79.772 0.0779 79.771 0.5-3e-3 0.93447-14.414 13.367-21.997 18.978-3.025 2.2381-7.8475 5.2439-10.717 6.6795l-5.2168 2.6102h-29.2c-16.06 0-28.966 0.23405-28.68 0.52012 0.28607 0.28606 12.315 1.5898 26.73 2.8972 14.416 1.3074 26.434 2.6009 26.708 2.8744 0.79585 0.79585-15.452 14.547-23.288 19.708-3.9396 2.5952-9.2213 5.237-11.737 5.8705-5.9817 1.5062-17.949 0.16471-39.047-4.377-8.7708-1.8881-16.054-3.3263-16.184-3.196-0.1303 0.13029 8.0583 3.328 18.197 7.106 10.139 3.778 18.434 7.1621 18.434 7.5201 0 0.73642-16.341 6.1663-25.64 8.5201-10.885 2.755-17.742 3.3146-23.272 1.8994z"></path>
    <path d="m327.79 332.48c-9.7471-1.5433-19.216-3.8006-23.288-5.5516-5.3377-2.2954-10.923-8.076-14.948-15.471l-2.6667-4.8996 9.4867-11.455c11.936-14.411 29.381-32.191 35.902-36.591l4.9866-3.364 159.03 0.0908-5.5 5.0441c-8.3444 7.6528-21.879 17.62-27.688 20.391-5.171 2.4662-5.2892 2.4743-35.917 2.4743-16.901 0-30.503 0.2255-30.227 0.5011 0.47272 0.47273 51.675 5.4989 56.019 5.4989 2.242 0-2.7532 4.8935-15.093 14.786-10.2 8.1773-17.021 11.214-25.187 11.214-7.1688 0-26.761-3.3412-43.403-7.402-5.4978-1.3415-10.131-2.3045-10.295-2.14-0.31099 0.31098 12.909 5.5297 30.512 12.045 5.6214 2.0806 9.9921 4.1529 9.7126 4.6051-0.71847 1.1625-18.324 6.7091-28.433 8.958-15.45 3.4369-20.363 2.3502-38.427-8.4994-5.8011-3.4841-10.244-5.8244-9.8724-5.2006 0.37124 0.62377 3.0656 4.1476 5.9874 7.8308 2.9218 3.6831 5.3124 6.9456 5.3124 7.25 0 0.58105-1.8258 0.54611-6-0.11483z"></path>
   </g>
   <g transform="matrix(-.74904 0 0 .74904 383.95 184.35)" stroke-width="10.68">
    <path d="m351.87 332.49c-5.9763-1.5294-10.706-3.8482-21.507-10.545-4.3551-2.7-7.292-4.0968-6.5266-3.1039 0.76546 0.99289 2.9906 3.8303 4.9449 6.3053 7.3549 9.315 7.4141 8.4138-0.5 7.6154-9.9066-0.99943-22.132-4.2098-27.085-7.1125-4.1748-2.4466-9.5605-8.8712-12.85-15.329-2.034-3.9927-2.3383-3.4319 9.5766-17.646 12.602-15.033 25.54-28.199 32.806-33.385l6.5068-4.6435 79.773-0.26753c43.875-0.14715 79.772 0.0779 79.771 0.5-3e-3 0.93447-14.414 13.367-21.997 18.978-3.025 2.2381-7.8475 5.2439-10.717 6.6795l-5.2168 2.6102h-29.2c-16.06 0-28.966 0.23405-28.68 0.52012 0.28607 0.28606 12.315 1.5898 26.73 2.8972 14.416 1.3074 26.434 2.6009 26.708 2.8744 0.79585 0.79585-15.452 14.547-23.288 19.708-3.9396 2.5952-9.2213 5.237-11.737 5.8705-5.9817 1.5062-17.949 0.16471-39.047-4.377-8.7708-1.8881-16.054-3.3263-16.184-3.196-0.1303 0.13029 8.0583 3.328 18.197 7.106 10.139 3.778 18.434 7.1621 18.434 7.5201 0 0.73642-16.341 6.1663-25.64 8.5201-10.885 2.755-17.742 3.3146-23.272 1.8994z"></path>
    <path d="m327.79 332.48c-9.7471-1.5433-19.216-3.8006-23.288-5.5516-5.3377-2.2954-10.923-8.076-14.948-15.471l-2.6667-4.8996 9.4867-11.455c11.936-14.411 29.381-32.191 35.902-36.591l4.9866-3.364 159.03 0.0908-5.5 5.0441c-8.3444 7.6528-21.879 17.62-27.688 20.391-5.171 2.4662-5.2892 2.4743-35.917 2.4743-16.901 0-30.503 0.2255-30.227 0.5011 0.47272 0.47273 51.675 5.4989 56.019 5.4989 2.242 0-2.7532 4.8935-15.093 14.786-10.2 8.1773-17.021 11.214-25.187 11.214-7.1688 0-26.761-3.3412-43.403-7.402-5.4978-1.3415-10.131-2.3045-10.295-2.14-0.31099 0.31098 12.909 5.5297 30.512 12.045 5.6214 2.0806 9.9921 4.1529 9.7126 4.6051-0.71847 1.1625-18.324 6.7091-28.433 8.958-15.45 3.4369-20.363 2.3502-38.427-8.4994-5.8011-3.4841-10.244-5.8244-9.8724-5.2006 0.37124 0.62377 3.0656 4.1476 5.9874 7.8308 2.9218 3.6831 5.3124 6.9456 5.3124 7.25 0 0.58105-1.8258 0.54611-6-0.11483z"></path>
   </g>
  </g>
  <g transform="matrix(1.067 0 0 1.067 -533.65 -702.5)">
   <path d="m829.03 924.65c-6.0933-0.7363-12.592 0.6845-19.312 5.3125l-1.1562 0.7812 0.6875 1.1875c5.1281 8.8884 12.628 12.952 20.812 14.031 8.1848 1.0797 17.079-0.647 25.625-2.9688l2.6562-0.7187-2.0625-1.8438c-6.6014-5.937-13.573-11.65-21.312-14.375-1.9349-0.6813-3.9064-1.1608-5.9375-1.4062z" color="#000000" filter="url(#blurry)" style="text-decoration-line:none;text-indent:0;text-transform:none"></path>
   <path d="m852.12 889.25-2.7188 0.5313c-8.7036 1.7529-17.413 3.948-24.219 8.5312s-11.571 11.721-11.969 22.594l-0.0625 1.375 1.375 0.1562c10.192 1.1908 17.936-2.39 23.688-8.3125s9.6681-14.07 12.906-22.312z" color="#000000" filter="url(#blurry)" style="text-decoration-line:none;text-indent:0;text-transform:none"></path>
   <path d="m859.18 913.68c-6.1338-0.2187-12.476 1.7269-18.781 6.9063l-1.0938 0.875 0.8125 1.1562c5.8609 8.4233 13.66 11.835 21.906 12.219 8.2467 0.3841 16.962-2.1206 25.281-5.1563l2.5625-0.9375-2.1875-1.6562c-7.0795-5.3579-14.495-10.439-22.438-12.5-1.9855-0.5154-4.0179-0.8334-6.0625-0.9063z" color="#000000" filter="url(#blurry)" style="text-decoration-line:none;text-indent:0;text-transform:none"></path>
   <path d="m872.18 865.4-2.0312 1.8437c-6.5702 5.9715-12.949 12.355-16.438 19.781s-3.8953 15.964 1.3438 25.5l0.65625 1.2187 1.2812-0.5625c9.3587-4.2091 14.135-11.246 16.031-19.281 1.8966-8.0349 1.0764-17.045-0.375-25.781z" color="#000000" filter="url(#blurry)" style="text-decoration-line:none;text-indent:0;text-transform:none"></path>
   <path d="m890.46 897.97c-8.2028 0.2009-16.033 3.6431-22.219 12.594l-0.78125 1.125 1.0625 0.875c7.9503 6.488 16.403 7.6472 24.438 5.75s15.71-6.6696 22.875-11.875l2.2188-1.625-2.5625-1c-8.2795-3.2057-16.828-6.0447-25.031-5.8437z" color="#000000" filter="url(#blurry)" style="text-decoration-line:none;text-indent:0;text-transform:none"></path>
   <path d="m886.53 847-1.3438 2.4063c-4.3256 7.7534-8.34 15.818-9.2812 23.969-0.94126 8.1512 1.3712 16.38 9.375 23.75l1.0312 0.9375 1.0312-0.9375c7.5302-6.9712 9.8244-15.154 9.0625-23.375s-4.4349-16.494-8.5938-24.312z" color="#000000" filter="url(#blurry)" style="text-decoration-line:none;text-indent:0;text-transform:none"></path>
   <path d="m918.71 876.28c-2.1008 0.1124-4.1525 0.3731-6.1562 0.8125-8.0149 1.7574-15.067 6.63-19.438 16.594l-0.5625 1.2813 1.2188 0.6562c9.0392 4.8574 17.567 4.3596 25.094 0.9688s14.175-9.527 20.219-16l1.875-2.0313-2.7188-0.4687c-6.5536-1.1794-13.229-2.1498-19.531-1.8125z" color="#000000" filter="url(#blurry)" style="text-decoration-line:none;text-indent:0;text-transform:none"></path>
   <path d="m899.65 827.5-0.875 2.625c-2.8124 8.4212-5.2431 17.097-4.6562 25.281s4.3931 15.836 13.625 21.594l1.1875 0.75 0.8125-1.125c6.1065-8.2469 6.8671-16.72 4.5938-24.656-2.2734-7.9366-7.4319-15.401-12.969-22.312z" color="#000000" filter="url(#blurry)" style="text-decoration-line:none;text-indent:0;text-transform:none"></path>
   <path d="m957.4 848.9-2.75 0.031c-8.8778 0.1083-17.868 0.6647-25.406 3.9062s-13.53 9.3584-15.938 19.969l-0.3125 1.3437 1.3125 0.4063c9.7947 3.0603 18.062 1.003 24.812-3.75 6.7502-4.7531 12.102-12.063 16.812-19.562l1.4688-2.3438z" color="#000000" filter="url(#blurry)" style="text-decoration-line:none;text-indent:0;text-transform:none"></path>
   <path d="m905.68 796.22-0.5625 2.6875c-1.8297 8.6878-3.2701 17.562-1.75 25.625 1.5201 8.0632 6.2009 15.275 16.031 19.938l1.25 0.5937 0.6875-1.2187c5.1221-8.8919 4.8859-17.407 1.7188-25.031s-9.1144-14.424-15.406-20.656z" color="#000000" filter="url(#blurry)" style="text-decoration-line:none;text-indent:0;text-transform:none"></path>
   <path d="m962.65 819.81-2.7188 0.375c-8.8021 1.1618-17.682 2.7614-24.781 6.875s-12.307 10.898-13.438 21.719l-0.15625 1.375 1.375 0.25c10.089 1.8756 18.018-1.1666 24.156-6.6875 6.138-5.521 10.588-13.401 14.375-21.406z" color="#000000" filter="url(#blurry)" style="text-decoration-line:none;text-indent:0;text-transform:none"></path>
   <path d="m903.53 766.4 0.0625 2.7812c0.15779 8.8771 0.74787 17.855 4.0312 25.375s9.4389 13.464 20.062 15.812l1.3438 0.3125 0.40625-1.3125c3.0058-9.8116 0.88434-18.058-3.9062-24.781s-12.131-12.05-19.656-16.719z" color="#000000" filter="url(#blurry)" style="text-decoration-line:none;text-indent:0;text-transform:none"></path>
   <path d="m957.4 782.34-2.375 1.375c-7.697 4.4251-15.282 9.2746-20.281 15.781-4.9991 6.5067-7.2619 14.782-4.1875 25.219l0.40625 1.3437 1.3438-0.2812c10.043-2.1063 16.238-7.9643 19.812-15.406s4.7022-16.437 5.1562-25.281z" color="#000000" filter="url(#blurry)" style="text-decoration-line:none;text-indent:0;text-transform:none"></path>
   <path d="m885.12 734.9 0.78125 2.6562c2.499 8.5195 5.4391 17.022 10.594 23.406 5.1546 6.3841 12.665 10.513 23.531 9.9687l1.375-0.094 0.0625-1.375c0.30489-10.257-3.946-17.657-10.344-22.875s-14.883-8.3931-23.375-10.906l-2.625-0.7813z" color="#000000" filter="url(#blurry)" style="text-decoration-line:none;text-indent:0;text-transform:none"></path>
   <path d="m942.56 743.81-1.75 2.125c-5.6633 6.8376-11.092 14.031-13.5 21.875s-1.6241 16.392 4.9062 25.094l0.84375 1.0937 1.1875-0.75c8.6723-5.4857 12.411-13.122 13.156-21.344 0.74561-8.222-1.3635-17.024-4.0312-25.469z" color="#000000" filter="url(#blurry)" style="text-decoration-line:none;text-indent:0;text-transform:none"></path>
   <path d="m879.87 701.53 0.5 2.7187c1.5691 8.7387 3.5613 17.505 8 24.406 4.4387 6.901 11.482 11.811 22.344 12.438l1.375 0.094 0.1875-1.375c1.4053-10.165-2.0126-17.969-7.8125-23.844s-13.89-9.9638-22.062-13.375l-2.5312-1.0624z" color="#000000" filter="url(#blurry)" style="text-decoration-line:none;text-indent:0;text-transform:none"></path>
   <path d="m923.31 708.65-1.2812 2.4375c-4.157 7.8451-8.0164 15.987-8.7812 24.156s1.745 16.368 9.9062 23.562l1.0312 0.9063 1-0.9375c7.3777-7.1324 9.5019-15.392 8.5625-23.594s-4.7669-16.398-9.0938-24.125z" color="#000000" filter="url(#blurry)" style="text-decoration-line:none;text-indent:0;text-transform:none"></path>
   <path d="m771.06 924.97c-2.0311 0.2454-4.0339 0.7249-5.9688 1.4062-7.7395 2.7251-14.711 8.438-21.312 14.375l-2.0312 1.8125 2.6562 0.75c8.5462 2.3218 17.44 4.0485 25.625 2.9688 8.1848-1.0798 15.653-5.1429 20.781-14.031l0.6875-1.2187-1.125-0.7813c-6.7206-4.628-13.219-6.0175-19.312-5.2812z" color="#000000" filter="url(#blurry)" style="text-decoration-line:none;text-indent:0;text-transform:none"></path>
   <path d="m747.96 889.56 1 2.5625c3.2381 8.2428 7.1547 16.39 12.906 22.312s13.464 9.5033 23.656 8.3125l1.375-0.1562-0.0312-1.375c-0.39762-10.873-5.1628-18.011-11.969-22.594s-15.546-6.7783-24.25-8.5312l-2.6875-0.5313z" color="#000000" filter="url(#blurry)" style="text-decoration-line:none;text-indent:0;text-transform:none"></path>
   <path d="m740.9 914c-2.0446 0.073-4.077 0.3597-6.0625 0.875-7.9422 2.0613-15.358 7.1734-22.438 12.531l-2.2188 1.6562 2.5938 0.9375c8.3194 3.0357 17.035 5.5092 25.281 5.125s16.045-3.7955 21.906-12.219l0.78125-1.125-1.0625-0.875c-6.3055-5.1794-12.647-7.125-18.781-6.9063z" color="#000000" filter="url(#blurry)" style="text-decoration-line:none;text-indent:0;text-transform:none"></path>
   <path d="m727.87 865.72-0.4375 2.6875c-1.4514 8.7362-2.3028 17.778-0.40625 25.812 1.8966 8.0348 6.7038 15.072 16.062 19.281l1.2812 0.5625 0.65625-1.2187c5.2391-9.5356 4.8014-18.105 1.3125-25.531s-9.836-13.778-16.406-19.75z" color="#000000" filter="url(#blurry)" style="text-decoration-line:none;text-indent:0;text-transform:none"></path>
   <path d="m709.59 898.25c-8.2028-0.201-16.752 2.6693-25.031 5.875l-2.5625 1 2.25 1.5938c7.1646 5.2053 14.84 10.009 22.875 11.906 8.0347 1.8972 16.487 0.738 24.438-5.75l1.0625-0.875-0.78125-1.125c-6.1855-8.9506-14.047-12.424-22.25-12.625z" color="#000000" filter="url(#blurry)" style="text-decoration-line:none;text-indent:0;text-transform:none"></path>
   <path d="m713.56 847.28-1.2812 2.4375c-4.1588 7.8187-7.8319 16.092-8.5938 24.312-0.7619 8.2204 1.5323 16.435 9.0625 23.406l1.0312 0.9375 1-0.9375c8.0038-7.3697 10.348-15.63 9.4062-23.781-0.94127-8.1512-4.9557-16.215-9.2812-23.969z" color="#000000" filter="url(#blurry)" style="text-decoration-line:none;text-indent:0;text-transform:none"></path>
   <path d="m681.34 876.59c-6.3025-0.3373-12.946 0.6019-19.5 1.7812l-2.7188 0.5 1.875 2c6.0438 6.473 12.692 12.64 20.219 16.031s16.023 3.8574 25.062-1l1.2188-0.6563-0.5625-1.25c-4.3702-9.9637-11.391-14.836-19.406-16.594-2.0037-0.4394-4.0867-0.7001-6.1875-0.8125z" color="#000000" filter="url(#blurry)" style="text-decoration-line:none;text-indent:0;text-transform:none"></path>
   <path d="m700.4 827.81-1.7188 2.1563c-5.5369 6.9116-10.664 14.345-12.938 22.281s-1.544 16.441 4.5625 24.688l0.84375 1.0938 1.1562-0.7188c9.2319-5.7573 13.069-13.441 13.656-21.625 0.58689-8.1843-1.8751-16.86-4.6875-25.281z" color="#000000" filter="url(#blurry)" style="text-decoration-line:none;text-indent:0;text-transform:none"></path>
   <path d="m642.68 849.22 1.4688 2.3437c4.7106 7.4992 10.062 14.778 16.812 19.531 6.7502 4.753 15.018 6.8416 24.812 3.7812l1.3125-0.4062-0.3125-1.3438c-2.4071-10.61-8.3996-16.758-15.938-20-7.5379-3.2415-16.528-3.7666-25.406-3.875l-2.75-0.031z" color="#000000" filter="url(#blurry)" style="text-decoration-line:none;text-indent:0;text-transform:none"></path>
   <path d="m694.37 796.5-1.9375 1.9375c-6.2918 6.2323-12.239 13.064-15.406 20.688-3.1672 7.624-3.4034 16.139 1.7188 25.031l0.6875 1.1875 1.25-0.5938c9.8304-4.6625 14.511-11.843 16.031-19.906 1.5201-8.0633 0.0797-16.968-1.75-25.656z" color="#000000" filter="url(#blurry)" style="text-decoration-line:none;text-indent:0;text-transform:none"></path>
   <path d="m637.43 820.12 1.1562 2.5c3.7868 8.0055 8.237 15.885 14.375 21.406 6.138 5.5209 14.099 8.5631 24.188 6.6875l1.375-0.25-0.15625-1.375c-1.1302-10.821-6.3691-17.605-13.469-21.719-7.0997-4.1136-15.948-5.7132-24.75-6.875z" color="#000000" filter="url(#blurry)" style="text-decoration-line:none;text-indent:0;text-transform:none"></path>
   <path d="m696.53 766.72-2.3125 1.4687c-7.5253 4.6688-14.866 9.9639-19.656 16.688-4.7906 6.7236-6.912 14.97-3.9062 24.781l0.40625 1.3437 1.3438-0.3125c10.624-2.348 16.779-8.2927 20.062-15.812 3.2834-7.5198 3.8735-16.529 4.0312-25.406l0.0312-2.75z" color="#000000" filter="url(#blurry)" style="text-decoration-line:none;text-indent:0;text-transform:none"></path>
   <path d="m642.65 782.65 0.15625 2.75c0.45407 8.8443 1.551 17.839 5.125 25.281 3.574 7.442 9.7693 13.269 19.812 15.375l1.375 0.2813 0.375-1.3125c3.0744-10.437 0.84281-18.712-4.1562-25.219-4.9991-6.5066-12.584-11.356-20.281-15.781z" color="#000000" filter="url(#blurry)" style="text-decoration-line:none;text-indent:0;text-transform:none"></path>
   <path d="m714.96 735.22-2.6562 0.7812c-8.4919 2.5132-16.946 5.6884-23.344 10.906-6.3977 5.2178-10.649 12.618-10.344 22.875l0.0312 1.375 1.4062 0.062c10.866 0.5441 18.377-3.5534 23.531-9.9375 5.1546-6.3842 8.0947-14.918 10.594-23.438l0.78125-2.625z" color="#000000" filter="url(#blurry)" style="text-decoration-line:none;text-indent:0;text-transform:none"></path>
   <path d="m657.53 744.12-0.84375 2.625c-2.6678 8.4446-4.7456 17.247-4 25.469 0.7456 8.2219 4.484 15.858 13.156 21.344l1.1875 0.75 0.8125-1.125c6.5303-8.7022 7.314-17.218 4.9062-25.062-2.4078-7.8441-7.8054-15.069-13.469-21.906z" color="#000000" filter="url(#blurry)" style="text-decoration-line:none;text-indent:0;text-transform:none"></path>
   <path d="m720.21 701.84-2.5625 1.0625c-8.1726 3.4111-16.231 7.4998-22.031 13.375-5.8 5.8751-9.2178 13.679-7.8125 23.844l0.1875 1.3438 1.375-0.062c10.862-0.6267 17.905-5.5365 22.344-12.438 4.4387-6.9011 6.4309-15.668 8-24.406l0.5-2.7187z" color="#000000" filter="url(#blurry)" style="text-decoration-line:none;text-indent:0;text-transform:none"></path>
   <path d="m676.78 708.97-1.3438 2.4062c-4.3269 7.727-8.1856 15.923-9.125 24.125-0.93941 8.2021 1.1848 16.43 8.5625 23.562l1 0.96875 1.0312-0.90625c8.1613-7.195 10.671-15.393 9.9062-23.562-0.76486-8.1696-4.593-16.311-8.75-24.156z" color="#000000" filter="url(#blurry)" style="text-decoration-line:none;text-indent:0;text-transform:none"></path>
  </g>
  <g transform="matrix(.74904 0 0 .74904 256.05 184.35)">
   <path d="m351.87 332.49c-5.9763-1.5294-10.706-3.8482-21.507-10.545-4.3551-2.7-7.292-4.0968-6.5266-3.1039 0.76546 0.99289 2.9906 3.8303 4.9449 6.3053 7.3549 9.315 7.4141 8.4138-0.5 7.6154-9.9066-0.99943-22.132-4.2098-27.085-7.1125-4.1748-2.4466-9.5605-8.8712-12.85-15.329-2.034-3.9927-2.3383-3.4319 9.5766-17.646 12.602-15.033 25.54-28.199 32.806-33.385l6.5068-4.6435 79.773-0.26753c43.875-0.14715 79.772 0.0779 79.771 0.5-3e-3 0.93447-14.414 13.367-21.997 18.978-3.025 2.2381-7.8475 5.2439-10.717 6.6795l-5.2168 2.6102h-29.2c-16.06 0-28.966 0.23405-28.68 0.52012 0.28607 0.28606 12.315 1.5898 26.73 2.8972 14.416 1.3074 26.434 2.6009 26.708 2.8744 0.79585 0.79585-15.452 14.547-23.288 19.708-3.9396 2.5952-9.2213 5.237-11.737 5.8705-5.9817 1.5062-17.949 0.16471-39.047-4.377-8.7708-1.8881-16.054-3.3263-16.184-3.196-0.1303 0.13029 8.0583 3.328 18.197 7.106 10.139 3.778 18.434 7.1621 18.434 7.5201 0 0.73642-16.341 6.1663-25.64 8.5201-10.885 2.755-17.742 3.3146-23.272 1.8994z"></path>
   <path d="m327.79 332.48c-9.7471-1.5433-19.216-3.8006-23.288-5.5516-5.3377-2.2954-10.923-8.076-14.948-15.471l-2.6667-4.8996 9.4867-11.455c11.936-14.411 29.381-32.191 35.902-36.591l4.9866-3.364 159.03 0.0908-5.5 5.0441c-8.3444 7.6528-21.879 17.62-27.688 20.391-5.171 2.4662-5.2892 2.4743-35.917 2.4743-16.901 0-30.503 0.2255-30.227 0.5011 0.47272 0.47273 51.675 5.4989 56.019 5.4989 2.242 0-2.7532 4.8935-15.093 14.786-10.2 8.1773-17.021 11.214-25.187 11.214-7.1688 0-26.761-3.3412-43.403-7.402-5.4978-1.3415-10.131-2.3045-10.295-2.14-0.31099 0.31098 12.909 5.5297 30.512 12.045 5.6214 2.0806 9.9921 4.1529 9.7126 4.6051-0.71847 1.1625-18.324 6.7091-28.433 8.958-15.45 3.4369-20.363 2.3502-38.427-8.4994-5.8011-3.4841-10.244-5.8244-9.8724-5.2006 0.37124 0.62377 3.0656 4.1476 5.9874 7.8308 2.9218 3.6831 5.3124 6.9456 5.3124 7.25 0 0.58105-1.8258 0.54611-6-0.11483z"></path>
  </g>
  <g transform="matrix(-.74904 0 0 .74904 383.95 184.35)">
   <path d="m351.87 332.49c-5.9763-1.5294-10.706-3.8482-21.507-10.545-4.3551-2.7-7.292-4.0968-6.5266-3.1039 0.76546 0.99289 2.9906 3.8303 4.9449 6.3053 7.3549 9.315 7.4141 8.4138-0.5 7.6154-9.9066-0.99943-22.132-4.2098-27.085-7.1125-4.1748-2.4466-9.5605-8.8712-12.85-15.329-2.034-3.9927-2.3383-3.4319 9.5766-17.646 12.602-15.033 25.54-28.199 32.806-33.385l6.5068-4.6435 79.773-0.26753c43.875-0.14715 79.772 0.0779 79.771 0.5-3e-3 0.93447-14.414 13.367-21.997 18.978-3.025 2.2381-7.8475 5.2439-10.717 6.6795l-5.2168 2.6102h-29.2c-16.06 0-28.966 0.23405-28.68 0.52012 0.28607 0.28606 12.315 1.5898 26.73 2.8972 14.416 1.3074 26.434 2.6009 26.708 2.8744 0.79585 0.79585-15.452 14.547-23.288 19.708-3.9396 2.5952-9.2213 5.237-11.737 5.8705-5.9817 1.5062-17.949 0.16471-39.047-4.377-8.7708-1.8881-16.054-3.3263-16.184-3.196-0.1303 0.13029 8.0583 3.328 18.197 7.106 10.139 3.778 18.434 7.1621 18.434 7.5201 0 0.73642-16.341 6.1663-25.64 8.5201-10.885 2.755-17.742 3.3146-23.272 1.8994z"></path>
   <path d="m327.79 332.48c-9.7471-1.5433-19.216-3.8006-23.288-5.5516-5.3377-2.2954-10.923-8.076-14.948-15.471l-2.6667-4.8996 9.4867-11.455c11.936-14.411 29.381-32.191 35.902-36.591l4.9866-3.364 159.03 0.0908-5.5 5.0441c-8.3444 7.6528-21.879 17.62-27.688 20.391-5.171 2.4662-5.2892 2.4743-35.917 2.4743-16.901 0-30.503 0.2255-30.227 0.5011 0.47272 0.47273 51.675 5.4989 56.019 5.4989 2.242 0-2.7532 4.8935-15.093 14.786-10.2 8.1773-17.021 11.214-25.187 11.214-7.1688 0-26.761-3.3412-43.403-7.402-5.4978-1.3415-10.131-2.3045-10.295-2.14-0.31099 0.31098 12.909 5.5297 30.512 12.045 5.6214 2.0806 9.9921 4.1529 9.7126 4.6051-0.71847 1.1625-18.324 6.7091-28.433 8.958-15.45 3.4369-20.363 2.3502-38.427-8.4994-5.8011-3.4841-10.244-5.8244-9.8724-5.2006 0.37124 0.62377 3.0656 4.1476 5.9874 7.8308 2.9218 3.6831 5.3124 6.9456 5.3124 7.25 0 0.58105-1.8258 0.54611-6-0.11483z"></path>
  </g>
  <g transform="matrix(1.2659 0 0 1.2659 -648.6 257.97)" stroke="#fff" stroke-linecap="round" stroke-linejoin="round" stroke-width="6.3195">
   <path d="m653.52 119.84h-17.296c-1.2771 0-2.3536-0.0547-3.2293-0.16421-0.83926-0.10946-1.5326-0.29191-2.0799-0.54733-0.51085-0.29192-0.89399-0.67506-1.1494-1.1494-0.21894-0.47436-0.32841-1.0947-0.3284-1.861-1e-5 -0.83925 0.12771-1.8245 0.38313-2.9556l2.1894-10.29c0.3284-1.4231 0.69329-2.5725 1.0947-3.4482 0.43787-0.87572 0.9852-1.5508 1.642-2.0252 0.69329-0.47434 1.5508-0.7845 2.5725-0.93048 1.0582-0.18242 2.3536-0.27365 3.8861-0.27367h8.2648l-1.2042 5.6923h-5.6923c-0.76629 2e-5 -1.4048 0.0365-1.9157 0.10947-0.47437 0.0365-0.87575 0.16422-1.2041 0.38314-0.29193 0.21895-0.52911 0.54736-0.71154 0.98521-0.18246 0.43789-0.34666 1.04-0.49261 1.8062l-1.2042 5.6923c-0.18245 0.91224-0.27368 1.5143-0.27366 1.8062-2e-5 0.62032 0.20068 1.0217 0.60207 1.2042 0.43786 0.18245 1.2954 0.27367 2.5725 0.27367h8.1006l5.4734-25.834h6.7323l-6.7323 31.527"></path>
   <path d="m685.23 113.16c-0.29194 1.4231-0.65684 2.5725-1.0947 3.4482-0.40141 0.83926-0.94875 1.5143-1.642 2.0252-0.65683 0.47436-1.5143 0.80276-2.5725 0.98521-1.0582 0.14596-2.3718 0.21894-3.9408 0.21894h-10.399c-2.5178 0-4.2693-0.23718-5.2545-0.71154-0.98522-0.51085-1.4778-1.5143-1.4778-3.0104 0-0.83925 0.12771-1.8245 0.38314-2.9556l2.1894-10.29c0.32839-1.4231 0.69329-2.5725 1.0947-3.4482 0.43786-0.87572 0.9852-1.5508 1.642-2.0252 0.69329-0.47434 1.5508-0.7845 2.5725-0.93048 1.0582-0.18242 2.3535-0.27365 3.8861-0.27367h10.399c1.3501 2.4e-5 2.463 0.073 3.3388 0.21894 0.87571 0.10949 1.569 0.31018 2.0799 0.60207 0.51082 0.25545 0.85746 0.63858 1.0399 1.1494 0.21891 0.47438 0.32837 1.0582 0.32841 1.7515-4e-5 0.83928-0.12775 1.8245-0.38314 2.9556l-2.1894 10.29m-6.1849-2.2988 1.2041-5.6923c0.18242-0.91222 0.27365-1.5143 0.27367-1.8062-2e-5 -0.6203-0.21896-1.0217-0.65681-1.2042-0.4014-0.18242-1.2406-0.27365-2.5178-0.27367h-5.3639c-0.76629 2e-5 -1.4049 0.0365-1.9157 0.10947-0.47438 0.0365-0.87576 0.16422-1.2042 0.38314-0.29193 0.21895-0.52911 0.54736-0.71154 0.98521-0.18246 0.43789-0.34666 1.04-0.4926 1.8062l-1.2042 5.6923c-0.18246 0.91224-0.27368 1.5143-0.27367 1.8062-1e-5 0.62032 0.20068 1.0217 0.60207 1.2042 0.43786 0.18245 1.2954 0.27367 2.5725 0.27367h5.3639c0.83924 0 1.496-0.0365 1.9704-0.10947 0.51082-0.073 0.91221-0.21893 1.2041-0.43787 0.29189-0.25542 0.51083-0.58382 0.65681-0.98521 0.18242-0.43787 0.34662-1.0217 0.49261-1.7515"></path>
   <path d="m714.12 113.11c-0.29195 1.4231-0.65684 2.5725-1.0947 3.4482-0.4379 0.87575-1.0035 1.5508-1.6968 2.0252-0.69332 0.47436-1.5691 0.80276-2.6272 0.98521-1.0217 0.14595-2.2988 0.21893-3.8314 0.21893h-8.2101l1.2042-5.6376h5.6376c0.87573 0 1.569-0.0365 2.0799-0.10947 0.51083-0.10946 0.89397-0.27366 1.1494-0.49261 0.2919-0.25542 0.51083-0.58382 0.65681-0.98521 0.14594-0.43786 0.29189-1.0034 0.43787-1.6968l1.2589-5.7471c0.14594-0.72977 0.21891-1.3136 0.21894-1.7515-3e-5 -0.6203-0.21896-1.0217-0.65681-1.2042-0.4014-0.21891-1.2407-0.32838-2.5178-0.3284h-8.0459l-5.4734 25.834h-6.7323l6.6775-31.527h17.351c2.5177 2.4e-5 4.2692 0.25545 5.2545 0.76628 0.98518 0.51087 1.4778 1.4961 1.4778 2.9556-3e-5 0.83927-0.12775 1.8427-0.38314 3.0104l-2.1346 10.235"></path>
   <path d="m743.91 110.86h-15.654l1.2041-5.6923h9.1406c0.21891-1.0217 0.32838-1.5873 0.32841-1.6968-3e-5 -1.0947-0.87577-1.642-2.6272-1.642h-5.3639c-0.7298 2e-5 -1.3501 0.0365-1.861 0.10947-0.47438 0.073-0.87576 0.2372-1.2042 0.4926-0.29193 0.21896-0.54735 0.54736-0.76628 0.98521-0.18245 0.43789-0.34666 1.0217-0.4926 1.7515l-1.2042 5.6923c-0.14597 0.72979-0.21894 1.3136-0.21893 1.7515-1e-5 0.62032 0.20068 1.04 0.60207 1.2589 0.43786 0.18245 1.2954 0.27367 2.5725 0.27367h13.793l-1.2042 5.6376h-16.365c-1.3136 0-2.4083-0.0547-3.284-0.1642-0.87575-0.10947-1.569-0.31016-2.0799-0.60207-0.51086-0.29192-0.87575-0.65681-1.0947-1.0947-0.21894-0.47436-0.32841-1.0764-0.32841-1.8062 0-0.40138 0.0365-0.83925 0.10947-1.3136 0.073-0.51084 0.18245-1.0764 0.32841-1.6968l2.1346-10.235c0.51084-2.4083 1.4778-4.1233 2.9009-5.145 1.4596-1.0582 3.5759-1.5873 6.3491-1.5873h9.6332c2.5177 2.4e-5 4.2692 0.25545 5.2545 0.76628 0.98518 0.51087 1.4778 1.4961 1.4778 2.9556-3e-5 0.83927-0.12774 1.8427-0.38313 3.0104l-1.6968 7.9912"></path>
   <path d="m752.84 119.84h-6.7323l6.6775-31.472h6.7323l-6.6775 31.472"></path>
   <path d="m784.43 113.16c-0.29194 1.4231-0.65683 2.5725-1.0947 3.4482-0.40142 0.83926-0.94875 1.5143-1.642 2.0252-0.65684 0.47436-1.5143 0.80276-2.5725 0.98521-1.0582 0.14596-2.3718 0.21894-3.9408 0.21894h-10.399c-2.5178 0-4.2692-0.23718-5.2545-0.71154-0.98521-0.51085-1.4778-1.5143-1.4778-3.0104 0-0.83925 0.12771-1.8245 0.38314-2.9556l2.1894-10.29c0.3284-1.4231 0.69329-2.5725 1.0947-3.4482 0.43786-0.87572 0.9852-1.5508 1.642-2.0252 0.69328-0.47434 1.5508-0.7845 2.5725-0.93048 1.0582-0.18242 2.3536-0.27365 3.8861-0.27367h10.399c1.3501 2.4e-5 2.463 0.073 3.3388 0.21894 0.87571 0.10949 1.569 0.31018 2.0799 0.60207 0.51082 0.25545 0.85747 0.63858 1.04 1.1494 0.2189 0.47438 0.32837 1.0582 0.3284 1.7515-3e-5 0.83928-0.12775 1.8245-0.38314 2.9556l-2.1894 10.29m-6.1849-2.2988 1.2042-5.6923c0.18242-0.91222 0.27364-1.5143 0.27366-1.8062-2e-5 -0.6203-0.21896-1.0217-0.6568-1.2042-0.40141-0.18242-1.2407-0.27365-2.5178-0.27367h-5.3639c-0.76629 2e-5 -1.4048 0.0365-1.9157 0.10947-0.47437 0.0365-0.87575 0.16422-1.2041 0.38314-0.29193 0.21895-0.52911 0.54736-0.71155 0.98521-0.18245 0.43789-0.34666 1.04-0.4926 1.8062l-1.2042 5.6923c-0.18246 0.91224-0.27368 1.5143-0.27367 1.8062-1e-5 0.62032 0.20068 1.0217 0.60208 1.2042 0.43786 0.18245 1.2954 0.27367 2.5725 0.27367h5.3639c0.83923 0 1.496-0.0365 1.9704-0.10947 0.51083-0.073 0.91221-0.21893 1.2042-0.43787 0.29189-0.25542 0.51082-0.58382 0.6568-0.98521 0.18243-0.43787 0.34663-1.0217 0.49261-1.7515"></path>
   <path d="m814.58 113.16c-0.29195 1.4231-0.65684 2.5725-1.0947 3.4482-0.40141 0.83926-0.94875 1.5143-1.642 2.0252-0.65683 0.47436-1.5143 0.80276-2.5725 0.98521-1.0582 0.14596-2.3718 0.21894-3.9408 0.21894h-10.399c-2.5178 0-4.2692-0.23718-5.2545-0.71154-0.98521-0.51085-1.4778-1.5143-1.4778-3.0104-1e-5 -0.83925 0.12771-1.8245 0.38314-2.9556l2.1894-10.29c0.3284-1.4231 0.69329-2.5725 1.0947-3.4482 0.43787-0.87572 0.9852-1.5508 1.642-2.0252 0.69329-0.47434 1.5508-0.7845 2.5725-0.93048 1.0582-0.18242 2.3535-0.27365 3.8861-0.27367h10.399c1.3501 2.4e-5 2.463 0.073 3.3388 0.21894 0.87572 0.10949 1.569 0.31018 2.0799 0.60207 0.51082 0.25545 0.85747 0.63858 1.04 1.1494 0.2189 0.47438 0.32837 1.0582 0.3284 1.7515-3e-5 0.83928-0.12774 1.8245-0.38314 2.9556l-2.1894 10.29m-6.1849-2.2988 1.2042-5.6923c0.18242-0.91222 0.27364-1.5143 0.27367-1.8062-3e-5 -0.6203-0.21896-1.0217-0.65681-1.2042-0.40141-0.18242-1.2407-0.27365-2.5178-0.27367h-5.3639c-0.76629 2e-5 -1.4048 0.0365-1.9157 0.10947-0.47438 0.0365-0.87576 0.16422-1.2042 0.38314-0.29193 0.21895-0.52911 0.54736-0.71154 0.98521-0.18246 0.43789-0.34666 1.04-0.49261 1.8062l-1.2041 5.6923c-0.18246 0.91224-0.27368 1.5143-0.27367 1.8062-1e-5 0.62032 0.20068 1.0217 0.60207 1.2042 0.43786 0.18245 1.2954 0.27367 2.5725 0.27367h5.3639c0.83923 0 1.496-0.0365 1.9704-0.10947 0.51083-0.073 0.91221-0.21893 1.2042-0.43787 0.29189-0.25542 0.51083-0.58382 0.65681-0.98521 0.18242-0.43787 0.34662-1.0217 0.4926-1.7515"></path>
   <path d="m843.47 113.11c-0.29195 1.4231-0.65684 2.5725-1.0947 3.4482-0.4379 0.87575-1.0035 1.5508-1.6968 2.0252-0.69332 0.47436-1.5691 0.80276-2.6272 0.98521-1.0217 0.14595-2.2988 0.21893-3.8314 0.21893h-8.2101l1.2041-5.6376h5.6376c0.87572 0 1.569-0.0365 2.0799-0.10947 0.51083-0.10946 0.89397-0.27366 1.1494-0.49261 0.2919-0.25542 0.51083-0.58382 0.65681-0.98521 0.14594-0.43786 0.29189-1.0034 0.43787-1.6968l1.2589-5.7471c0.14594-0.72977 0.21891-1.3136 0.21894-1.7515-3e-5 -0.6203-0.21896-1.0217-0.65681-1.2042-0.4014-0.21891-1.2407-0.32838-2.5178-0.3284h-8.0459l-5.4734 25.834h-6.7323l6.6775-31.527h17.351c2.5177 2.4e-5 4.2692 0.25545 5.2545 0.76628 0.98518 0.51087 1.4778 1.4961 1.4778 2.9556-3e-5 0.83927-0.12775 1.8427-0.38314 3.0104l-2.1346 10.235"></path>
   <path d="m853.12 119.78h-6.7323l1.1494-5.4187h6.7323l-1.1494 5.4187"></path>
   <path d="m883.1 119.84h-17.405c-1.2771 0-2.3536-0.0547-3.2293-0.16421-0.83926-0.10946-1.5326-0.29191-2.0799-0.54733-0.51085-0.29192-0.89399-0.67506-1.1494-1.1494-0.21894-0.47436-0.32841-1.0947-0.3284-1.861-1e-5 -0.83925 0.12771-1.8245 0.38313-2.9556l0.27367-1.3136c0.3284-1.4231 0.6933-2.5725 1.0947-3.4482 0.40138-0.87573 0.94872-1.5508 1.642-2.0252 0.69329-0.47435 1.5508-0.78451 2.5725-0.93048 1.0582-0.18243 2.3718-0.27365 3.9408-0.27367h7.827l-1.2041 5.6923h-7.2796c-0.65682 1e-5 -1.1859 0.21894-1.5873 0.65681-0.40139 0.40139-0.60209 0.8575-0.60208 1.3684-1e-5 0.83926 0.4926 1.2589 1.4778 1.2589h10.126l1.9157-8.9764c0.18242-0.91222 0.27364-1.5143 0.27367-1.8062-3e-5 -0.6203-0.21896-1.0217-0.65681-1.2042-0.40141-0.18242-1.2407-0.27365-2.5178-0.27367h-13.793l1.2041-5.6923h16.311c1.2771 2.4e-5 2.3353 0.05476 3.1746 0.1642 0.87571 0.10949 1.569 0.31018 2.0799 0.60207 0.5473 0.25545 0.93044 0.62034 1.1494 1.0947 0.25539 0.47438 0.3831 1.0947 0.38314 1.861-4e-5 0.83928-0.12775 1.8245-0.38314 2.9556l-3.6124 16.968"></path>
   <path d="m894.76 119.84h-6.7323l5.0355-23.7h6.7323l-5.0355 23.7m5.5829-26.108h-6.7323l1.1494-5.4187h6.7323l-1.1494 5.4187"></path>
  </g>
  <g transform="matrix(1.2659 0 0 1.2659 -648.6 257.97)" stroke-width="6.3195">
   <path d="m653.52 119.84h-17.296c-1.2771 0-2.3536-0.0547-3.2293-0.16421-0.83926-0.10946-1.5326-0.29191-2.0799-0.54733-0.51085-0.29192-0.89399-0.67506-1.1494-1.1494-0.21894-0.47436-0.32841-1.0947-0.3284-1.861-1e-5 -0.83925 0.12771-1.8245 0.38313-2.9556l2.1894-10.29c0.3284-1.4231 0.69329-2.5725 1.0947-3.4482 0.43787-0.87572 0.9852-1.5508 1.642-2.0252 0.69329-0.47434 1.5508-0.7845 2.5725-0.93048 1.0582-0.18242 2.3536-0.27365 3.8861-0.27367h8.2648l-1.2042 5.6923h-5.6923c-0.76629 2e-5 -1.4048 0.0365-1.9157 0.10947-0.47437 0.0365-0.87575 0.16422-1.2041 0.38314-0.29193 0.21895-0.52911 0.54736-0.71154 0.98521-0.18246 0.43789-0.34666 1.04-0.49261 1.8062l-1.2042 5.6923c-0.18245 0.91224-0.27368 1.5143-0.27366 1.8062-2e-5 0.62032 0.20068 1.0217 0.60207 1.2042 0.43786 0.18245 1.2954 0.27367 2.5725 0.27367h8.1006l5.4734-25.834h6.7323l-6.7323 31.527"></path>
   <path d="m685.23 113.16c-0.29194 1.4231-0.65684 2.5725-1.0947 3.4482-0.40141 0.83926-0.94875 1.5143-1.642 2.0252-0.65683 0.47436-1.5143 0.80276-2.5725 0.98521-1.0582 0.14596-2.3718 0.21894-3.9408 0.21894h-10.399c-2.5178 0-4.2693-0.23718-5.2545-0.71154-0.98522-0.51085-1.4778-1.5143-1.4778-3.0104 0-0.83925 0.12771-1.8245 0.38314-2.9556l2.1894-10.29c0.32839-1.4231 0.69329-2.5725 1.0947-3.4482 0.43786-0.87572 0.9852-1.5508 1.642-2.0252 0.69329-0.47434 1.5508-0.7845 2.5725-0.93048 1.0582-0.18242 2.3535-0.27365 3.8861-0.27367h10.399c1.3501 2.4e-5 2.463 0.073 3.3388 0.21894 0.87571 0.10949 1.569 0.31018 2.0799 0.60207 0.51082 0.25545 0.85746 0.63858 1.0399 1.1494 0.21891 0.47438 0.32837 1.0582 0.32841 1.7515-4e-5 0.83928-0.12775 1.8245-0.38314 2.9556l-2.1894 10.29m-6.1849-2.2988 1.2041-5.6923c0.18242-0.91222 0.27365-1.5143 0.27367-1.8062-2e-5 -0.6203-0.21896-1.0217-0.65681-1.2042-0.4014-0.18242-1.2406-0.27365-2.5178-0.27367h-5.3639c-0.76629 2e-5 -1.4049 0.0365-1.9157 0.10947-0.47438 0.0365-0.87576 0.16422-1.2042 0.38314-0.29193 0.21895-0.52911 0.54736-0.71154 0.98521-0.18246 0.43789-0.34666 1.04-0.4926 1.8062l-1.2042 5.6923c-0.18246 0.91224-0.27368 1.5143-0.27367 1.8062-1e-5 0.62032 0.20068 1.0217 0.60207 1.2042 0.43786 0.18245 1.2954 0.27367 2.5725 0.27367h5.3639c0.83924 0 1.496-0.0365 1.9704-0.10947 0.51082-0.073 0.91221-0.21893 1.2041-0.43787 0.29189-0.25542 0.51083-0.58382 0.65681-0.98521 0.18242-0.43787 0.34662-1.0217 0.49261-1.7515"></path>
   <path d="m714.12 113.11c-0.29195 1.4231-0.65684 2.5725-1.0947 3.4482-0.4379 0.87575-1.0035 1.5508-1.6968 2.0252-0.69332 0.47436-1.5691 0.80276-2.6272 0.98521-1.0217 0.14595-2.2988 0.21893-3.8314 0.21893h-8.2101l1.2042-5.6376h5.6376c0.87573 0 1.569-0.0365 2.0799-0.10947 0.51083-0.10946 0.89397-0.27366 1.1494-0.49261 0.2919-0.25542 0.51083-0.58382 0.65681-0.98521 0.14594-0.43786 0.29189-1.0034 0.43787-1.6968l1.2589-5.7471c0.14594-0.72977 0.21891-1.3136 0.21894-1.7515-3e-5 -0.6203-0.21896-1.0217-0.65681-1.2042-0.4014-0.21891-1.2407-0.32838-2.5178-0.3284h-8.0459l-5.4734 25.834h-6.7323l6.6775-31.527h17.351c2.5177 2.4e-5 4.2692 0.25545 5.2545 0.76628 0.98518 0.51087 1.4778 1.4961 1.4778 2.9556-3e-5 0.83927-0.12775 1.8427-0.38314 3.0104l-2.1346 10.235"></path>
   <path d="m743.91 110.86h-15.654l1.2041-5.6923h9.1406c0.21891-1.0217 0.32838-1.5873 0.32841-1.6968-3e-5 -1.0947-0.87577-1.642-2.6272-1.642h-5.3639c-0.7298 2e-5 -1.3501 0.0365-1.861 0.10947-0.47438 0.073-0.87576 0.2372-1.2042 0.4926-0.29193 0.21896-0.54735 0.54736-0.76628 0.98521-0.18245 0.43789-0.34666 1.0217-0.4926 1.7515l-1.2042 5.6923c-0.14597 0.72979-0.21894 1.3136-0.21893 1.7515-1e-5 0.62032 0.20068 1.04 0.60207 1.2589 0.43786 0.18245 1.2954 0.27367 2.5725 0.27367h13.793l-1.2042 5.6376h-16.365c-1.3136 0-2.4083-0.0547-3.284-0.1642-0.87575-0.10947-1.569-0.31016-2.0799-0.60207-0.51086-0.29192-0.87575-0.65681-1.0947-1.0947-0.21894-0.47436-0.32841-1.0764-0.32841-1.8062 0-0.40138 0.0365-0.83925 0.10947-1.3136 0.073-0.51084 0.18245-1.0764 0.32841-1.6968l2.1346-10.235c0.51084-2.4083 1.4778-4.1233 2.9009-5.145 1.4596-1.0582 3.5759-1.5873 6.3491-1.5873h9.6332c2.5177 2.4e-5 4.2692 0.25545 5.2545 0.76628 0.98518 0.51087 1.4778 1.4961 1.4778 2.9556-3e-5 0.83927-0.12774 1.8427-0.38313 3.0104l-1.6968 7.9912"></path>
   <path d="m752.84 119.84h-6.7323l6.6775-31.472h6.7323l-6.6775 31.472"></path>
   <path d="m784.43 113.16c-0.29194 1.4231-0.65683 2.5725-1.0947 3.4482-0.40142 0.83926-0.94875 1.5143-1.642 2.0252-0.65684 0.47436-1.5143 0.80276-2.5725 0.98521-1.0582 0.14596-2.3718 0.21894-3.9408 0.21894h-10.399c-2.5178 0-4.2692-0.23718-5.2545-0.71154-0.98521-0.51085-1.4778-1.5143-1.4778-3.0104 0-0.83925 0.12771-1.8245 0.38314-2.9556l2.1894-10.29c0.3284-1.4231 0.69329-2.5725 1.0947-3.4482 0.43786-0.87572 0.9852-1.5508 1.642-2.0252 0.69328-0.47434 1.5508-0.7845 2.5725-0.93048 1.0582-0.18242 2.3536-0.27365 3.8861-0.27367h10.399c1.3501 2.4e-5 2.463 0.073 3.3388 0.21894 0.87571 0.10949 1.569 0.31018 2.0799 0.60207 0.51082 0.25545 0.85747 0.63858 1.04 1.1494 0.2189 0.47438 0.32837 1.0582 0.3284 1.7515-3e-5 0.83928-0.12775 1.8245-0.38314 2.9556l-2.1894 10.29m-6.1849-2.2988 1.2042-5.6923c0.18242-0.91222 0.27364-1.5143 0.27366-1.8062-2e-5 -0.6203-0.21896-1.0217-0.6568-1.2042-0.40141-0.18242-1.2407-0.27365-2.5178-0.27367h-5.3639c-0.76629 2e-5 -1.4048 0.0365-1.9157 0.10947-0.47437 0.0365-0.87575 0.16422-1.2041 0.38314-0.29193 0.21895-0.52911 0.54736-0.71155 0.98521-0.18245 0.43789-0.34666 1.04-0.4926 1.8062l-1.2042 5.6923c-0.18246 0.91224-0.27368 1.5143-0.27367 1.8062-1e-5 0.62032 0.20068 1.0217 0.60208 1.2042 0.43786 0.18245 1.2954 0.27367 2.5725 0.27367h5.3639c0.83923 0 1.496-0.0365 1.9704-0.10947 0.51083-0.073 0.91221-0.21893 1.2042-0.43787 0.29189-0.25542 0.51082-0.58382 0.6568-0.98521 0.18243-0.43787 0.34663-1.0217 0.49261-1.7515"></path>
   <path d="m814.58 113.16c-0.29195 1.4231-0.65684 2.5725-1.0947 3.4482-0.40141 0.83926-0.94875 1.5143-1.642 2.0252-0.65683 0.47436-1.5143 0.80276-2.5725 0.98521-1.0582 0.14596-2.3718 0.21894-3.9408 0.21894h-10.399c-2.5178 0-4.2692-0.23718-5.2545-0.71154-0.98521-0.51085-1.4778-1.5143-1.4778-3.0104-1e-5 -0.83925 0.12771-1.8245 0.38314-2.9556l2.1894-10.29c0.3284-1.4231 0.69329-2.5725 1.0947-3.4482 0.43787-0.87572 0.9852-1.5508 1.642-2.0252 0.69329-0.47434 1.5508-0.7845 2.5725-0.93048 1.0582-0.18242 2.3535-0.27365 3.8861-0.27367h10.399c1.3501 2.4e-5 2.463 0.073 3.3388 0.21894 0.87572 0.10949 1.569 0.31018 2.0799 0.60207 0.51082 0.25545 0.85747 0.63858 1.04 1.1494 0.2189 0.47438 0.32837 1.0582 0.3284 1.7515-3e-5 0.83928-0.12774 1.8245-0.38314 2.9556l-2.1894 10.29m-6.1849-2.2988 1.2042-5.6923c0.18242-0.91222 0.27364-1.5143 0.27367-1.8062-3e-5 -0.6203-0.21896-1.0217-0.65681-1.2042-0.40141-0.18242-1.2407-0.27365-2.5178-0.27367h-5.3639c-0.76629 2e-5 -1.4048 0.0365-1.9157 0.10947-0.47438 0.0365-0.87576 0.16422-1.2042 0.38314-0.29193 0.21895-0.52911 0.54736-0.71154 0.98521-0.18246 0.43789-0.34666 1.04-0.49261 1.8062l-1.2041 5.6923c-0.18246 0.91224-0.27368 1.5143-0.27367 1.8062-1e-5 0.62032 0.20068 1.0217 0.60207 1.2042 0.43786 0.18245 1.2954 0.27367 2.5725 0.27367h5.3639c0.83923 0 1.496-0.0365 1.9704-0.10947 0.51083-0.073 0.91221-0.21893 1.2042-0.43787 0.29189-0.25542 0.51083-0.58382 0.65681-0.98521 0.18242-0.43787 0.34662-1.0217 0.4926-1.7515"></path>
   <path d="m843.47 113.11c-0.29195 1.4231-0.65684 2.5725-1.0947 3.4482-0.4379 0.87575-1.0035 1.5508-1.6968 2.0252-0.69332 0.47436-1.5691 0.80276-2.6272 0.98521-1.0217 0.14595-2.2988 0.21893-3.8314 0.21893h-8.2101l1.2041-5.6376h5.6376c0.87572 0 1.569-0.0365 2.0799-0.10947 0.51083-0.10946 0.89397-0.27366 1.1494-0.49261 0.2919-0.25542 0.51083-0.58382 0.65681-0.98521 0.14594-0.43786 0.29189-1.0034 0.43787-1.6968l1.2589-5.7471c0.14594-0.72977 0.21891-1.3136 0.21894-1.7515-3e-5 -0.6203-0.21896-1.0217-0.65681-1.2042-0.4014-0.21891-1.2407-0.32838-2.5178-0.3284h-8.0459l-5.4734 25.834h-6.7323l6.6775-31.527h17.351c2.5177 2.4e-5 4.2692 0.25545 5.2545 0.76628 0.98518 0.51087 1.4778 1.4961 1.4778 2.9556-3e-5 0.83927-0.12775 1.8427-0.38314 3.0104l-2.1346 10.235"></path>
   <path d="m853.12 119.78h-6.7323l1.1494-5.4187h6.7323l-1.1494 5.4187"></path>
   <path d="m883.1 119.84h-17.405c-1.2771 0-2.3536-0.0547-3.2293-0.16421-0.83926-0.10946-1.5326-0.29191-2.0799-0.54733-0.51085-0.29192-0.89399-0.67506-1.1494-1.1494-0.21894-0.47436-0.32841-1.0947-0.3284-1.861-1e-5 -0.83925 0.12771-1.8245 0.38313-2.9556l0.27367-1.3136c0.3284-1.4231 0.6933-2.5725 1.0947-3.4482 0.40138-0.87573 0.94872-1.5508 1.642-2.0252 0.69329-0.47435 1.5508-0.78451 2.5725-0.93048 1.0582-0.18243 2.3718-0.27365 3.9408-0.27367h7.827l-1.2041 5.6923h-7.2796c-0.65682 1e-5 -1.1859 0.21894-1.5873 0.65681-0.40139 0.40139-0.60209 0.8575-0.60208 1.3684-1e-5 0.83926 0.4926 1.2589 1.4778 1.2589h10.126l1.9157-8.9764c0.18242-0.91222 0.27364-1.5143 0.27367-1.8062-3e-5 -0.6203-0.21896-1.0217-0.65681-1.2042-0.40141-0.18242-1.2407-0.27365-2.5178-0.27367h-13.793l1.2041-5.6923h16.311c1.2771 2.4e-5 2.3353 0.05476 3.1746 0.1642 0.87571 0.10949 1.569 0.31018 2.0799 0.60207 0.5473 0.25545 0.93044 0.62034 1.1494 1.0947 0.25539 0.47438 0.3831 1.0947 0.38314 1.861-4e-5 0.83928-0.12775 1.8245-0.38314 2.9556l-3.6124 16.968"></path>
   <path d="m894.76 119.84h-6.7323l5.0355-23.7h6.7323l-5.0355 23.7m5.5829-26.108h-6.7323l1.1494-5.4187h6.7323l-1.1494 5.4187"></path>
  </g>
 </g>
</svg>
