<?xml version="1.0" encoding="UTF-8" standalone="no"?>
<!-- Created with Inkscape (http://www.inkscape.org/) -->

<svg
   xmlns:dc="http://purl.org/dc/elements/1.1/"
   xmlns:cc="http://creativecommons.org/ns#"
   xmlns:rdf="http://www.w3.org/1999/02/22-rdf-syntax-ns#"
   xmlns:svg="http://www.w3.org/2000/svg"
   xmlns="http://www.w3.org/2000/svg"
   xmlns:sodipodi="http://sodipodi.sourceforge.net/DTD/sodipodi-0.dtd"
   xmlns:inkscape="http://www.inkscape.org/namespaces/inkscape"
   width="512"
   height="512"
   viewBox="0 0 512.00001 512.00001"
   id="svg6242"
   version="1.1"
   inkscape:version="0.91 r13725"
   sodipodi:docname="favicon.svg">
  <defs
     id="defs6244" />
  <sodipodi:namedview
     id="base"
     pagecolor="#424242"
     bordercolor="#666666"
     borderopacity="1.0"
     inkscape:pageopacity="0"
     inkscape:pageshadow="2"
     inkscape:zoom="0.5"
     inkscape:cx="-419.78586"
     inkscape:cy="551.72047"
     inkscape:document-units="px"
     inkscape:current-layer="layer1"
     showgrid="false"
     borderlayer="true"
     inkscape:showpageshadow="false"
     units="px"
     inkscape:window-width="1920"
     inkscape:window-height="1080"
     inkscape:window-x="0"
     inkscape:window-y="0"
     inkscape:window-maximized="1" />
  <metadata
     id="metadata6247">
    <rdf:RDF>
      <cc:Work
         rdf:about="">
        <dc:format>image/svg+xml</dc:format>
        <dc:type
           rdf:resource="http://purl.org/dc/dcmitype/StillImage" />
        <dc:title></dc:title>
      </cc:Work>
    </rdf:RDF>
  </metadata>
  <g
     inkscape:label="Layer 1"
     inkscape:groupmode="layer"
     id="layer1"
     transform="translate(0,-540.36216)">
    <path
       style="color:#000000;font-style:normal;font-variant:normal;font-weight:normal;font-stretch:normal;font-size:medium;line-height:normal;font-family:sans-serif;text-indent:0;text-align:start;text-decoration:none;text-decoration-line:none;text-decoration-style:solid;text-decoration-color:#000000;letter-spacing:normal;word-spacing:normal;text-transform:none;direction:ltr;block-progression:tb;writing-mode:lr-tb;baseline-shift:baseline;text-anchor:start;white-space:normal;clip-rule:nonzero;display:inline;overflow:visible;visibility:visible;opacity:1;isolation:auto;mix-blend-mode:normal;color-interpolation:sRGB;color-interpolation-filters:linearRGB;solid-color:#000000;solid-opacity:1;fill:#c83737;fill-opacity:1;fill-rule:nonzero;stroke:#ffffff;stroke-width:32;stroke-linecap:butt;stroke-linejoin:miter;stroke-miterlimit:4;stroke-dasharray:none;stroke-dashoffset:0;stroke-opacity:1;color-rendering:auto;image-rendering:auto;shape-rendering:auto;text-rendering:auto;enable-background:accumulate"
       d="m 255.94727,755.31445 c -23.95547,0 -46.18447,7.64537 -64.35352,22.39844 -18.06994,14.67243 -30.35951,34.55799 -35.98828,57.75977 l -0.45117,1.85742 0,2.70508 c 0,4.87782 2.46489,10.5634 5.76172,13.85937 1.83912,1.83858 4.43688,3.3574 7.20703,4.39453 -3.11485,1.215 -6.01185,2.97535 -8.16797,5.13086 -4.01264,4.01157 -6.83594,10.54273 -6.83594,16.40039 l 0,50.63672 c 0,5.85766 2.82328,12.39077 6.83594,16.40235 4.01273,4.0116 10.54434,6.83203 16.40039,6.83203 5.85605,0 12.38572,-2.82042 16.39844,-6.83203 l 4.45703,-4.45508 c 6.35119,4.43446 13.12494,8.22905 20.36718,11.14648 12.12213,4.88304 24.90319,7.375 37.91602,7.375 23.89183,0 46.06373,-7.65751 64.1582,-22.42187 14.94058,-12.19105 25.81809,-28.01583 32.27735,-46.29883 l 4.01953,0 0,-13.24024 c 0.15953,-1.23548 0,-2.02277 0,-2.75976 0,-4.87837 -2.46598,-10.56199 -5.76172,-13.85742 l 0,-0.002 -0.002,-0.002 c -1.7529,-1.7521 -4.19073,-3.22952 -6.8125,-4.26563 3.26472,-1.21335 6.31993,-3.01194 8.5664,-5.25781 4.01286,-4.01174 6.83594,-10.54477 6.83594,-16.40234 l 0,-50.63672 c 0,-5.85758 -2.82306,-12.38865 -6.83594,-16.40039 -4.01271,-4.01163 -10.54435,-6.83203 -16.40039,-6.83203 -5.85601,0 -12.38568,2.82039 -16.39844,6.83203 l 0.043,-0.0449 -4.61523,4.58008 c -6.39729,-4.43279 -13.22989,-8.23267 -20.54492,-11.17383 -12.21326,-4.91062 -25.04504,-7.42774 -38.07617,-7.42774 z m 70.82812,51.56641 0,20.77148 -20.66211,0 12.36719,-12.36328 -0.0937,-0.0859 8.38867,-8.32226 z M 255.94727,816.25 c 5.20889,0 9.76324,0.79651 14.0332,2.27734 l -1.49024,1.49024 c -4.01225,4.0116 -6.83593,10.54276 -6.83593,16.40039 0,5.85748 2.82314,12.39057 6.83593,16.40234 4.01272,4.01156 10.54435,6.83203 16.40039,6.83203 l 20.89844,0 c -4.46016,2.68279 -8.39634,6.6225 -9.66797,10.27735 l 0.35938,-0.93946 c -1.54891,3.68692 -2.79771,6.57409 -3.69336,8.55079 -0.89566,1.97669 -1.9282,3.64311 -0.97852,2.17578 l -0.10351,0.16015 -0.0977,0.16016 c -3.92298,6.38719 -8.75411,11.02718 -15.21484,14.64648 -6.4513,3.61402 -12.93193,5.30664 -20.44531,5.30664 -4.83075,0 -9.32002,-0.8954 -13.79883,-2.51171 l 1.25586,-1.25586 c 4.01285,-4.01174 6.83593,-10.54478 6.83593,-16.40235 0,-5.85769 -2.82327,-12.38883 -6.83593,-16.40039 -4.01275,-4.01166 -10.54438,-6.83203 -16.40039,-6.83203 l -20.90039,0 c 4.46104,-2.68297 8.39825,-6.62201 9.66992,-10.27734 l -0.35938,0.93945 c 1.54891,-3.68691 2.79771,-6.5741 3.69336,-8.55078 0.89565,-1.97668 1.92829,-3.64516 0.97852,-2.17774 l 0.10351,-0.1582 0.0977,-0.16211 c 3.92298,-6.38709 8.75397,-11.027 15.21484,-14.64648 6.4513,-3.61392 12.93185,-5.30469 20.44532,-5.30469 z m -62.72461,2.88477 c -0.0333,0.0514 -0.0282,0.0688 -0.0605,0.11914 -0.0435,0.0703 -0.0993,0.13072 -0.14258,0.20117 l 0.20313,-0.32031 z m 130.72656,55.14062 0,0.0293 c -0.0212,0.0844 -0.0548,0.15606 -0.0762,0.24023 0.007,-0.0683 0.066,-0.19551 0.0762,-0.26953 z m -138.83008,14.3125 20.66016,0 -10.01953,10.01758 -2.20704,2.20703 -8.43359,8.43164 0,-20.65625 z m 133.75586,8.19727 -0.20312,0.32031 c 0.0333,-0.0514 0.0282,-0.0688 0.0605,-0.11914 0.0435,-0.0703 0.0993,-0.13072 0.14258,-0.20117 z"
       id="path4178"
       inkscape:connector-curvature="0" />
    <g
       style="fill:#c83737;fill-opacity:1;stroke:#ffffff;stroke-width:16.99609063;stroke-miterlimit:4;stroke-dasharray:none;stroke-opacity:1;stroke-linecap:round;stroke-linejoin:round"
       transform="matrix(-1.3879082,-1.2722709,-1.2726006,1.3875486,1033.8709,898.97798)"
       id="g4158">
      <path
         inkscape:connector-curvature="0"
         id="path4160"
         d="m 351.874,332.49108 c -5.97631,-1.52945 -10.70559,-3.84818 -21.5066,-10.54455 -4.35507,-2.70004 -7.29202,-4.09679 -6.52655,-3.10389 0.76546,0.99289 2.99065,3.83026 4.94486,6.30526 7.35493,9.31499 7.4141,8.41379 -0.5,7.61538 -9.90659,-0.99943 -22.13229,-4.20984 -27.08526,-7.11248 -4.17482,-2.44661 -9.56054,-8.87115 -12.85043,-15.3291 -2.034,-3.99267 -2.33832,-3.43193 9.5766,-17.6456 12.6017,-15.03292 25.53992,-28.19936 32.80606,-33.38471 l 6.50685,-4.64349 79.77309,-0.26753 c 43.8752,-0.14715 79.77193,0.0779 79.77052,0.5 -0.003,0.93447 -14.4135,13.36671 -21.99743,18.97782 -3.025,2.2381 -7.84754,5.24387 -10.71676,6.67949 l -5.21675,2.61022 -29.19991,0 c -16.05995,0 -28.96586,0.23405 -28.6798,0.52012 0.28607,0.28606 12.31479,1.58978 26.7305,2.89716 14.41571,1.30737 26.43419,2.60086 26.70774,2.87441 0.79585,0.79585 -15.45236,14.5466 -23.28785,19.70835 -3.93955,2.59525 -9.22134,5.23697 -11.73731,5.8705 -5.98173,1.50621 -17.94916,0.16471 -39.04683,-4.37701 -8.77084,-1.8881 -16.05358,-3.32631 -16.18388,-3.19601 -0.1303,0.13029 8.05834,3.328 18.19697,7.10601 10.13864,3.778 18.43388,7.16207 18.43388,7.52014 0,0.73642 -16.34058,6.16628 -25.64019,8.52006 -10.88463,2.75496 -17.74168,3.31464 -23.27152,1.89945 z"
         style="fill:#c83737;fill-opacity:1;stroke:#ffffff;stroke-width:16.99609063;stroke-miterlimit:4;stroke-dasharray:none;stroke-opacity:1;stroke-linecap:round;stroke-linejoin:round" />
      <path
         inkscape:connector-curvature="0"
         id="path4162"
         d="m 327.78571,332.47969 c -9.74713,-1.54333 -19.21605,-3.80065 -23.28767,-5.55161 -5.33774,-2.29543 -10.9227,-8.07605 -14.94779,-15.47147 l -2.66672,-4.89964 9.48671,-11.45453 c 11.93567,-14.41149 29.38113,-32.19144 35.90212,-36.59053 l 4.98665,-3.36401 79.51335,0.0454 79.51335,0.0454 -5.5,5.04413 c -8.34439,7.65275 -21.87929,17.62049 -27.68807,20.3908 -5.17101,2.46615 -5.2892,2.47429 -35.91667,2.47429 -16.90073,0 -30.5031,0.2255 -30.22749,0.5011 0.47272,0.47273 51.67548,5.4989 56.01855,5.4989 2.24197,0 -2.75317,4.89349 -15.09286,14.78571 -10.20049,8.17732 -17.02135,11.21429 -25.18661,11.21429 -7.16884,0 -26.76058,-3.34122 -43.40295,-7.40204 -5.49785,-1.34151 -10.13067,-2.30452 -10.29515,-2.14004 -0.31099,0.31098 12.90913,5.5297 30.51202,12.04478 5.62143,2.08057 9.9921,4.15287 9.7126,4.60511 -0.71847,1.16251 -18.3238,6.70914 -28.43337,8.95805 -15.44979,3.43686 -20.36259,2.35024 -38.42737,-8.49938 -5.80109,-3.4841 -10.24369,-5.82438 -9.87244,-5.20061 0.37124,0.62377 3.06558,4.14761 5.9874,7.83075 2.92183,3.68314 5.31241,6.94564 5.31241,7.25 0,0.58105 -1.82576,0.54611 -6,-0.11483 z"
         style="fill:#c83737;fill-opacity:1;stroke:#ffffff;stroke-width:16.99609063;stroke-miterlimit:4;stroke-dasharray:none;stroke-opacity:1;stroke-linecap:round;stroke-linejoin:round" />
    </g>
    <g
       id="g4164"
       transform="matrix(1.3879082,-1.2722709,1.2726006,1.3875486,-521.87101,898.97798)"
       style="fill:#c83737;fill-opacity:1;stroke:#ffffff;stroke-width:16.99609063;stroke-miterlimit:4;stroke-dasharray:none;stroke-opacity:1;stroke-linecap:round;stroke-linejoin:round">
      <path
         style="fill:#c83737;fill-opacity:1;stroke:#ffffff;stroke-width:16.99609063;stroke-miterlimit:4;stroke-dasharray:none;stroke-opacity:1;stroke-linecap:round;stroke-linejoin:round"
         d="m 351.874,332.49108 c -5.97631,-1.52945 -10.70559,-3.84818 -21.5066,-10.54455 -4.35507,-2.70004 -7.29202,-4.09679 -6.52655,-3.10389 0.76546,0.99289 2.99065,3.83026 4.94486,6.30526 7.35493,9.31499 7.4141,8.41379 -0.5,7.61538 -9.90659,-0.99943 -22.13229,-4.20984 -27.08526,-7.11248 -4.17482,-2.44661 -9.56054,-8.87115 -12.85043,-15.3291 -2.034,-3.99267 -2.33832,-3.43193 9.5766,-17.6456 12.6017,-15.03292 25.53992,-28.19936 32.80606,-33.38471 l 6.50685,-4.64349 79.77309,-0.26753 c 43.8752,-0.14715 79.77193,0.0779 79.77052,0.5 -0.003,0.93447 -14.4135,13.36671 -21.99743,18.97782 -3.025,2.2381 -7.84754,5.24387 -10.71676,6.67949 l -5.21675,2.61022 -29.19991,0 c -16.05995,0 -28.96586,0.23405 -28.6798,0.52012 0.28607,0.28606 12.31479,1.58978 26.7305,2.89716 14.41571,1.30737 26.43419,2.60086 26.70774,2.87441 0.79585,0.79585 -15.45236,14.5466 -23.28785,19.70835 -3.93955,2.59525 -9.22134,5.23697 -11.73731,5.8705 -5.98173,1.50621 -17.94916,0.16471 -39.04683,-4.37701 -8.77084,-1.8881 -16.05358,-3.32631 -16.18388,-3.19601 -0.1303,0.13029 8.05834,3.328 18.19697,7.10601 10.13864,3.778 18.43388,7.16207 18.43388,7.52014 0,0.73642 -16.34058,6.16628 -25.64019,8.52006 -10.88463,2.75496 -17.74168,3.31464 -23.27152,1.89945 z"
         id="path4166"
         inkscape:connector-curvature="0" />
      <path
         style="fill:#c83737;fill-opacity:1;stroke:#ffffff;stroke-width:16.99609063;stroke-miterlimit:4;stroke-dasharray:none;stroke-opacity:1;stroke-linecap:round;stroke-linejoin:round"
         d="m 327.78571,332.47969 c -9.74713,-1.54333 -19.21605,-3.80065 -23.28767,-5.55161 -5.33774,-2.29543 -10.9227,-8.07605 -14.94779,-15.47147 l -2.66672,-4.89964 9.48671,-11.45453 c 11.93567,-14.41149 29.38113,-32.19144 35.90212,-36.59053 l 4.98665,-3.36401 79.51335,0.0454 79.51335,0.0454 -5.5,5.04413 c -8.34439,7.65275 -21.87929,17.62049 -27.68807,20.3908 -5.17101,2.46615 -5.2892,2.47429 -35.91667,2.47429 -16.90073,0 -30.5031,0.2255 -30.22749,0.5011 0.47272,0.47273 51.67548,5.4989 56.01855,5.4989 2.24197,0 -2.75317,4.89349 -15.09286,14.78571 -10.20049,8.17732 -17.02135,11.21429 -25.18661,11.21429 -7.16884,0 -26.76058,-3.34122 -43.40295,-7.40204 -5.49785,-1.34151 -10.13067,-2.30452 -10.29515,-2.14004 -0.31099,0.31098 12.90913,5.5297 30.51202,12.04478 5.62143,2.08057 9.9921,4.15287 9.7126,4.60511 -0.71847,1.16251 -18.3238,6.70914 -28.43337,8.95805 -15.44979,3.43686 -20.36259,2.35024 -38.42737,-8.49938 -5.80109,-3.4841 -10.24369,-5.82438 -9.87244,-5.20061 0.37124,0.62377 3.06558,4.14761 5.9874,7.83075 2.92183,3.68314 5.31241,6.94564 5.31241,7.25 0,0.58105 -1.82576,0.54611 -6,-0.11483 z"
         id="path4168"
         inkscape:connector-curvature="0" />
    </g>
    <g
       id="g6122"
       transform="matrix(-1.3879082,-1.2722709,-1.2726006,1.3875486,1033.8709,898.97798)"
       style="fill:#c83737;fill-opacity:1;stroke:none">
      <path
         style="fill:#c83737;fill-opacity:1;stroke:none"
         d="m 351.874,332.49108 c -5.97631,-1.52945 -10.70559,-3.84818 -21.5066,-10.54455 -4.35507,-2.70004 -7.29202,-4.09679 -6.52655,-3.10389 0.76546,0.99289 2.99065,3.83026 4.94486,6.30526 7.35493,9.31499 7.4141,8.41379 -0.5,7.61538 -9.90659,-0.99943 -22.13229,-4.20984 -27.08526,-7.11248 -4.17482,-2.44661 -9.56054,-8.87115 -12.85043,-15.3291 -2.034,-3.99267 -2.33832,-3.43193 9.5766,-17.6456 12.6017,-15.03292 25.53992,-28.19936 32.80606,-33.38471 l 6.50685,-4.64349 79.77309,-0.26753 c 43.8752,-0.14715 79.77193,0.0779 79.77052,0.5 -0.003,0.93447 -14.4135,13.36671 -21.99743,18.97782 -3.025,2.2381 -7.84754,5.24387 -10.71676,6.67949 l -5.21675,2.61022 -29.19991,0 c -16.05995,0 -28.96586,0.23405 -28.6798,0.52012 0.28607,0.28606 12.31479,1.58978 26.7305,2.89716 14.41571,1.30737 26.43419,2.60086 26.70774,2.87441 0.79585,0.79585 -15.45236,14.5466 -23.28785,19.70835 -3.93955,2.59525 -9.22134,5.23697 -11.73731,5.8705 -5.98173,1.50621 -17.94916,0.16471 -39.04683,-4.37701 -8.77084,-1.8881 -16.05358,-3.32631 -16.18388,-3.19601 -0.1303,0.13029 8.05834,3.328 18.19697,7.10601 10.13864,3.778 18.43388,7.16207 18.43388,7.52014 0,0.73642 -16.34058,6.16628 -25.64019,8.52006 -10.88463,2.75496 -17.74168,3.31464 -23.27152,1.89945 z"
         id="path6124"
         inkscape:connector-curvature="0" />
      <path
         style="fill:#c83737;fill-opacity:1;stroke:none"
         d="m 327.78571,332.47969 c -9.74713,-1.54333 -19.21605,-3.80065 -23.28767,-5.55161 -5.33774,-2.29543 -10.9227,-8.07605 -14.94779,-15.47147 l -2.66672,-4.89964 9.48671,-11.45453 c 11.93567,-14.41149 29.38113,-32.19144 35.90212,-36.59053 l 4.98665,-3.36401 79.51335,0.0454 79.51335,0.0454 -5.5,5.04413 c -8.34439,7.65275 -21.87929,17.62049 -27.68807,20.3908 -5.17101,2.46615 -5.2892,2.47429 -35.91667,2.47429 -16.90073,0 -30.5031,0.2255 -30.22749,0.5011 0.47272,0.47273 51.67548,5.4989 56.01855,5.4989 2.24197,0 -2.75317,4.89349 -15.09286,14.78571 -10.20049,8.17732 -17.02135,11.21429 -25.18661,11.21429 -7.16884,0 -26.76058,-3.34122 -43.40295,-7.40204 -5.49785,-1.34151 -10.13067,-2.30452 -10.29515,-2.14004 -0.31099,0.31098 12.90913,5.5297 30.51202,12.04478 5.62143,2.08057 9.9921,4.15287 9.7126,4.60511 -0.71847,1.16251 -18.3238,6.70914 -28.43337,8.95805 -15.44979,3.43686 -20.36259,2.35024 -38.42737,-8.49938 -5.80109,-3.4841 -10.24369,-5.82438 -9.87244,-5.20061 0.37124,0.62377 3.06558,4.14761 5.9874,7.83075 2.92183,3.68314 5.31241,6.94564 5.31241,7.25 0,0.58105 -1.82576,0.54611 -6,-0.11483 z"
         id="path6126"
         inkscape:connector-curvature="0" />
    </g>
    <g
       style="fill:#c83737;fill-opacity:1;stroke:none"
       transform="matrix(1.3879082,-1.2722709,1.2726006,1.3875486,-521.87101,898.97798)"
       id="g6128">
      <path
         inkscape:connector-curvature="0"
         id="path6130"
         d="m 351.874,332.49108 c -5.97631,-1.52945 -10.70559,-3.84818 -21.5066,-10.54455 -4.35507,-2.70004 -7.29202,-4.09679 -6.52655,-3.10389 0.76546,0.99289 2.99065,3.83026 4.94486,6.30526 7.35493,9.31499 7.4141,8.41379 -0.5,7.61538 -9.90659,-0.99943 -22.13229,-4.20984 -27.08526,-7.11248 -4.17482,-2.44661 -9.56054,-8.87115 -12.85043,-15.3291 -2.034,-3.99267 -2.33832,-3.43193 9.5766,-17.6456 12.6017,-15.03292 25.53992,-28.19936 32.80606,-33.38471 l 6.50685,-4.64349 79.77309,-0.26753 c 43.8752,-0.14715 79.77193,0.0779 79.77052,0.5 -0.003,0.93447 -14.4135,13.36671 -21.99743,18.97782 -3.025,2.2381 -7.84754,5.24387 -10.71676,6.67949 l -5.21675,2.61022 -29.19991,0 c -16.05995,0 -28.96586,0.23405 -28.6798,0.52012 0.28607,0.28606 12.31479,1.58978 26.7305,2.89716 14.41571,1.30737 26.43419,2.60086 26.70774,2.87441 0.79585,0.79585 -15.45236,14.5466 -23.28785,19.70835 -3.93955,2.59525 -9.22134,5.23697 -11.73731,5.8705 -5.98173,1.50621 -17.94916,0.16471 -39.04683,-4.37701 -8.77084,-1.8881 -16.05358,-3.32631 -16.18388,-3.19601 -0.1303,0.13029 8.05834,3.328 18.19697,7.10601 10.13864,3.778 18.43388,7.16207 18.43388,7.52014 0,0.73642 -16.34058,6.16628 -25.64019,8.52006 -10.88463,2.75496 -17.74168,3.31464 -23.27152,1.89945 z"
         style="fill:#c83737;fill-opacity:1;stroke:none" />
      <path
         inkscape:connector-curvature="0"
         id="path6132"
         d="m 327.78571,332.47969 c -9.74713,-1.54333 -19.21605,-3.80065 -23.28767,-5.55161 -5.33774,-2.29543 -10.9227,-8.07605 -14.94779,-15.47147 l -2.66672,-4.89964 9.48671,-11.45453 c 11.93567,-14.41149 29.38113,-32.19144 35.90212,-36.59053 l 4.98665,-3.36401 79.51335,0.0454 79.51335,0.0454 -5.5,5.04413 c -8.34439,7.65275 -21.87929,17.62049 -27.68807,20.3908 -5.17101,2.46615 -5.2892,2.47429 -35.91667,2.47429 -16.90073,0 -30.5031,0.2255 -30.22749,0.5011 0.47272,0.47273 51.67548,5.4989 56.01855,5.4989 2.24197,0 -2.75317,4.89349 -15.09286,14.78571 -10.20049,8.17732 -17.02135,11.21429 -25.18661,11.21429 -7.16884,0 -26.76058,-3.34122 -43.40295,-7.40204 -5.49785,-1.34151 -10.13067,-2.30452 -10.29515,-2.14004 -0.31099,0.31098 12.90913,5.5297 30.51202,12.04478 5.62143,2.08057 9.9921,4.15287 9.7126,4.60511 -0.71847,1.16251 -18.3238,6.70914 -28.43337,8.95805 -15.44979,3.43686 -20.36259,2.35024 -38.42737,-8.49938 -5.80109,-3.4841 -10.24369,-5.82438 -9.87244,-5.20061 0.37124,0.62377 3.06558,4.14761 5.9874,7.83075 2.92183,3.68314 5.31241,6.94564 5.31241,7.25 0,0.58105 -1.82576,0.54611 -6,-0.11483 z"
         style="fill:#c83737;fill-opacity:1;stroke:none" />
    </g>
    <g
       id="g4182"
       transform="translate(0,-42)">
      <path
         style="fill:#ffffff;fill-opacity:1;stroke:#c83737;stroke-width:31.99999809;stroke-miterlimit:4;stroke-dasharray:none;stroke-opacity:1"
         id="path6134"
         d="m 339.94886,918.20413 q 0,0.56529 -0.11304,0.79132 -7.23569,30.29148 -30.29939,49.11074 -23.0637,18.81905 -54.04143,18.81905 -16.50636,0 -31.93872,-6.21647 -15.43232,-6.21669 -27.52947,-17.74551 l -14.58439,14.58066 q -2.1481,2.14751 -5.08758,2.14751 -2.93949,0 -5.0876,-2.14751 -2.14808,-2.1475 -2.14808,-5.08611 l 0,-50.63676 q 0,-2.93861 2.14808,-5.08612 2.14811,-2.1475 5.0876,-2.1475 l 50.64969,0 q 2.93951,0 5.08759,2.1475 2.1481,2.14751 2.1481,5.08612 0,2.93881 -2.1481,5.08631 l -15.48887,15.485 q 8.02708,7.45965 18.20227,11.52882 10.17515,4.06898 21.14171,4.06898 15.14968,0 28.26436,-7.34684 13.11464,-7.34683 21.02868,-20.23206 1.24361,-1.92147 5.99201,-13.22427 0.90446,-2.59956 3.39174,-2.59956 l 21.70703,0 q 1.46974,0 2.54378,1.07355 1.07405,1.07395 1.07405,2.54315 z m 2.82644,-90.42237 0,50.63655 q 0,2.93882 -2.14811,5.08633 -2.14808,2.1475 -5.08755,2.1475 l -50.64973,0 q -2.93947,0 -5.08759,-2.1475 -2.14806,-2.14751 -2.14806,-5.08633 0,-2.93861 2.14806,-5.08632 l 15.60192,-15.5978 q -16.73247,-15.48479 -39.45701,-15.48479 -15.14969,0 -28.26436,7.34664 -13.11465,7.34704 -21.02868,20.23206 -1.24364,1.92147 -5.99204,13.22427 -0.90444,2.59977 -3.39172,2.59977 l -22.49845,0 q -1.4697,0 -2.54378,-1.07376 -1.07402,-1.07374 -1.07402,-2.54316 l 0,-0.7913 q 7.34874,-30.29148 30.5255,-49.11054 23.17676,-18.81927 54.26755,-18.81927 16.50637,0 32.10827,6.27309 15.60195,6.27309 27.69906,17.6889 l 14.69746,-14.58066 q 2.1481,-2.1475 5.08762,-2.1475 2.93947,0 5.08755,2.1475 2.14811,2.1475 2.14811,5.08632 z"
         inkscape:connector-curvature="0" />
      <path
         inkscape:connector-curvature="0"
         d="m 339.94886,918.20413 q 0,0.56529 -0.11304,0.79132 -7.23569,30.29148 -30.29939,49.11074 -23.0637,18.81905 -54.04143,18.81905 -16.50636,0 -31.93872,-6.21647 -15.43232,-6.21669 -27.52947,-17.74551 l -14.58439,14.58066 q -2.1481,2.14751 -5.08758,2.14751 -2.93949,0 -5.0876,-2.14751 -2.14808,-2.1475 -2.14808,-5.08611 l 0,-50.63676 q 0,-2.93861 2.14808,-5.08612 2.14811,-2.1475 5.0876,-2.1475 l 50.64969,0 q 2.93951,0 5.08759,2.1475 2.1481,2.14751 2.1481,5.08612 0,2.93881 -2.1481,5.08631 l -15.48887,15.485 q 8.02708,7.45965 18.20227,11.52882 10.17515,4.06898 21.14171,4.06898 15.14968,0 28.26436,-7.34684 13.11464,-7.34683 21.02868,-20.23206 1.24361,-1.92147 5.99201,-13.22427 0.90446,-2.59956 3.39174,-2.59956 l 21.70703,0 q 1.46974,0 2.54378,1.07355 1.07405,1.07395 1.07405,2.54315 z m 2.82644,-90.42237 0,50.63655 q 0,2.93882 -2.14811,5.08633 -2.14808,2.1475 -5.08755,2.1475 l -50.64973,0 q -2.93947,0 -5.08759,-2.1475 -2.14806,-2.14751 -2.14806,-5.08633 0,-2.93861 2.14806,-5.08632 l 15.60192,-15.5978 q -16.73247,-15.48479 -39.45701,-15.48479 -15.14969,0 -28.26436,7.34664 -13.11465,7.34704 -21.02868,20.23206 -1.24364,1.92147 -5.99204,13.22427 -0.90444,2.59977 -3.39172,2.59977 l -22.49845,0 q -1.4697,0 -2.54378,-1.07376 -1.07402,-1.07374 -1.07402,-2.54316 l 0,-0.7913 q 7.34874,-30.29148 30.5255,-49.11054 23.17676,-18.81927 54.26755,-18.81927 16.50637,0 32.10827,6.27309 15.60195,6.27309 27.69906,17.6889 l 14.69746,-14.58066 q 2.1481,-2.1475 5.08762,-2.1475 2.93947,0 5.08755,2.1475 2.14811,2.1475 2.14811,5.08632 z"
         id="path6146"
         style="fill:#ffffff;fill-opacity:1;stroke:none;stroke-width:8;stroke-miterlimit:4;stroke-dasharray:none;stroke-opacity:1" />
    </g>
  </g>
</svg>
